%TF.GenerationSoftware,KiCad,Pcbnew,(6.0.6)*%
%TF.CreationDate,2022-08-19T10:36:33-07:00*%
%TF.ProjectId,panel,70616e65-6c2e-46b6-9963-61645f706362,rev?*%
%TF.SameCoordinates,PXe4e1c0PYe4e1c0*%
%TF.FileFunction,Soldermask,Bot*%
%TF.FilePolarity,Negative*%
%FSLAX46Y46*%
G04 Gerber Fmt 4.6, Leading zero omitted, Abs format (unit mm)*
G04 Created by KiCad (PCBNEW (6.0.6)) date 2022-08-19 10:36:33*
%MOMM*%
%LPD*%
G01*
G04 APERTURE LIST*
%ADD10C,0.500000*%
%ADD11R,1.700000X1.700000*%
%ADD12O,1.700000X1.700000*%
G04 APERTURE END LIST*
D10*
%TO.C,REF\u002A\u002A*%
X75340000Y-84380000D03*
%TD*%
%TO.C,REF\u002A\u002A*%
X13760000Y-68670000D03*
%TD*%
D11*
%TO.C,J1*%
X40923000Y-28559000D03*
D12*
X43463000Y-28559000D03*
X40923000Y-31099000D03*
X43463000Y-31099000D03*
X40923000Y-33639000D03*
X43463000Y-33639000D03*
%TD*%
D10*
%TO.C,REF\u002A\u002A*%
X39285000Y-37230000D03*
%TD*%
%TO.C,REF\u002A\u002A*%
X66780000Y-60010000D03*
%TD*%
%TO.C,REF\u002A\u002A*%
X57815000Y-68670000D03*
%TD*%
%TO.C,REF\u002A\u002A*%
X8200000Y-27575000D03*
%TD*%
%TO.C,REF\u002A\u002A*%
X33285000Y-37230000D03*
%TD*%
%TO.C,REF\u002A\u002A*%
X64380000Y-75725000D03*
%TD*%
%TO.C,REF\u002A\u002A*%
X64380000Y-33575000D03*
%TD*%
%TO.C,REF\u002A\u002A*%
X47250000Y-77725000D03*
%TD*%
%TO.C,REF\u002A\u002A*%
X57815000Y-8200000D03*
%TD*%
%TO.C,REF\u002A\u002A*%
X73340000Y-21520000D03*
%TD*%
D11*
%TO.C,J2*%
X50969000Y-41230000D03*
D12*
X48429000Y-41230000D03*
X50969000Y-43770000D03*
X48429000Y-43770000D03*
X50969000Y-46310000D03*
X48429000Y-46310000D03*
X50969000Y-48850000D03*
X48429000Y-48850000D03*
X50969000Y-51390000D03*
X48429000Y-51390000D03*
%TD*%
D10*
%TO.C,REF\u002A\u002A*%
X88600000Y-84580000D03*
%TD*%
%TO.C,REF\u002A\u002A*%
X17760000Y-37230000D03*
%TD*%
%TO.C,REF\u002A\u002A*%
X38285000Y-21520000D03*
%TD*%
%TO.C,REF\u002A\u002A*%
X44850000Y-64010000D03*
%TD*%
%TO.C,REF\u002A\u002A*%
X66780000Y-75725000D03*
%TD*%
%TO.C,REF\u002A\u002A*%
X27720000Y-79725000D03*
%TD*%
%TO.C,REF\u002A\u002A*%
X77340000Y-39630000D03*
%TD*%
%TO.C,REF\u002A\u002A*%
X44850000Y-78725000D03*
%TD*%
%TO.C,REF\u002A\u002A*%
X8000000Y-89080000D03*
%TD*%
%TO.C,REF\u002A\u002A*%
X25320000Y-65010000D03*
%TD*%
%TO.C,REF\u002A\u002A*%
X27720000Y-59010000D03*
%TD*%
%TO.C,REF\u002A\u002A*%
X16760000Y-68670000D03*
%TD*%
%TO.C,REF\u002A\u002A*%
X73340000Y-37230000D03*
%TD*%
%TO.C,REF\u002A\u002A*%
X84100000Y-2500000D03*
%TD*%
%TO.C,REF\u002A\u002A*%
X47250000Y-65010000D03*
%TD*%
%TO.C,REF\u002A\u002A*%
X89600000Y-84580000D03*
%TD*%
%TO.C,REF\u002A\u002A*%
X47250000Y-17860000D03*
%TD*%
%TO.C,REF\u002A\u002A*%
X18760000Y-52950000D03*
%TD*%
%TO.C,REF\u002A\u002A*%
X44850000Y-11860000D03*
%TD*%
%TO.C,REF\u002A\u002A*%
X8200000Y-33575000D03*
%TD*%
%TO.C,REF\u002A\u002A*%
X64380000Y-11860000D03*
%TD*%
%TO.C,REF\u002A\u002A*%
X47250000Y-80725000D03*
%TD*%
%TO.C,REF\u002A\u002A*%
X56815000Y-23920000D03*
%TD*%
%TO.C,REF\u002A\u002A*%
X66780000Y-47290000D03*
%TD*%
%TO.C,REF\u002A\u002A*%
X27720000Y-49290000D03*
%TD*%
D11*
%TO.C,J1*%
X79975000Y-28559000D03*
D12*
X82515000Y-28559000D03*
X79975000Y-31099000D03*
X82515000Y-31099000D03*
X79975000Y-33639000D03*
X82515000Y-33639000D03*
%TD*%
D10*
%TO.C,REF\u002A\u002A*%
X35285000Y-8200000D03*
%TD*%
%TO.C,REF\u002A\u002A*%
X18760000Y-71070000D03*
%TD*%
%TO.C,REF\u002A\u002A*%
X56815000Y-8200000D03*
%TD*%
%TO.C,REF\u002A\u002A*%
X66780000Y-59010000D03*
%TD*%
%TO.C,REF\u002A\u002A*%
X27720000Y-64010000D03*
%TD*%
%TO.C,REF\u002A\u002A*%
X44850000Y-48290000D03*
%TD*%
%TO.C,REF\u002A\u002A*%
X14760000Y-52950000D03*
%TD*%
%TO.C,REF\u002A\u002A*%
X8200000Y-29575000D03*
%TD*%
%TO.C,REF\u002A\u002A*%
X1500000Y-8000000D03*
%TD*%
%TO.C,REF\u002A\u002A*%
X66780000Y-46290000D03*
%TD*%
%TO.C,REF\u002A\u002A*%
X8200000Y-61010000D03*
%TD*%
%TO.C,REF\u002A\u002A*%
X84100000Y-500000D03*
%TD*%
D11*
%TO.C,J2*%
X11917000Y-56946000D03*
D12*
X9377000Y-56946000D03*
X11917000Y-59486000D03*
X9377000Y-59486000D03*
X11917000Y-62026000D03*
X9377000Y-62026000D03*
X11917000Y-64566000D03*
X9377000Y-64566000D03*
X11917000Y-67106000D03*
X9377000Y-67106000D03*
%TD*%
D10*
%TO.C,REF\u002A\u002A*%
X8200000Y-31575000D03*
%TD*%
%TO.C,REF\u002A\u002A*%
X53815000Y-37230000D03*
%TD*%
%TO.C,REF\u002A\u002A*%
X64380000Y-29575000D03*
%TD*%
%TO.C,REF\u002A\u002A*%
X52815000Y-52950000D03*
%TD*%
%TO.C,REF\u002A\u002A*%
X18760000Y-84380000D03*
%TD*%
%TO.C,REF\u002A\u002A*%
X64380000Y-30575000D03*
%TD*%
%TO.C,REF\u002A\u002A*%
X34285000Y-8200000D03*
%TD*%
%TO.C,REF\u002A\u002A*%
X44850000Y-33575000D03*
%TD*%
%TO.C,REF\u002A\u002A*%
X44850000Y-30575000D03*
%TD*%
%TO.C,REF\u002A\u002A*%
X27720000Y-74725000D03*
%TD*%
%TO.C,REF\u002A\u002A*%
X16760000Y-39630000D03*
%TD*%
%TO.C,REF\u002A\u002A*%
X47250000Y-61010000D03*
%TD*%
%TO.C,REF\u002A\u002A*%
X84100000Y-88080000D03*
%TD*%
%TO.C,REF\u002A\u002A*%
X56815000Y-55350000D03*
%TD*%
D11*
%TO.C,J2*%
X70495000Y-25514000D03*
D12*
X67955000Y-25514000D03*
X70495000Y-28054000D03*
X67955000Y-28054000D03*
X70495000Y-30594000D03*
X67955000Y-30594000D03*
X70495000Y-33134000D03*
X67955000Y-33134000D03*
X70495000Y-35674000D03*
X67955000Y-35674000D03*
%TD*%
D10*
%TO.C,REF\u002A\u002A*%
X55815000Y-21520000D03*
%TD*%
%TO.C,REF\u002A\u002A*%
X14760000Y-39630000D03*
%TD*%
D11*
%TO.C,J1*%
X79975000Y-75707000D03*
D12*
X82515000Y-75707000D03*
X79975000Y-78247000D03*
X82515000Y-78247000D03*
X79975000Y-80787000D03*
X82515000Y-80787000D03*
%TD*%
D10*
%TO.C,REF\u002A\u002A*%
X37285000Y-68670000D03*
%TD*%
%TO.C,REF\u002A\u002A*%
X53815000Y-55350000D03*
%TD*%
%TO.C,REF\u002A\u002A*%
X44850000Y-62010000D03*
%TD*%
%TO.C,REF\u002A\u002A*%
X19760000Y-21520000D03*
%TD*%
%TO.C,REF\u002A\u002A*%
X36285000Y-23920000D03*
%TD*%
%TO.C,REF\u002A\u002A*%
X25320000Y-49290000D03*
%TD*%
D11*
%TO.C,J2*%
X50969000Y-56946000D03*
D12*
X48429000Y-56946000D03*
X50969000Y-59486000D03*
X48429000Y-59486000D03*
X50969000Y-62026000D03*
X48429000Y-62026000D03*
X50969000Y-64566000D03*
X48429000Y-64566000D03*
X50969000Y-67106000D03*
X48429000Y-67106000D03*
%TD*%
D10*
%TO.C,REF\u002A\u002A*%
X56815000Y-68670000D03*
%TD*%
%TO.C,REF\u002A\u002A*%
X75340000Y-52950000D03*
%TD*%
D11*
%TO.C,J1*%
X21397000Y-75707000D03*
D12*
X23937000Y-75707000D03*
X21397000Y-78247000D03*
X23937000Y-78247000D03*
X21397000Y-80787000D03*
X23937000Y-80787000D03*
%TD*%
D10*
%TO.C,REF\u002A\u002A*%
X14760000Y-21520000D03*
%TD*%
%TO.C,REF\u002A\u002A*%
X47250000Y-47290000D03*
%TD*%
%TO.C,REF\u002A\u002A*%
X64380000Y-44290000D03*
%TD*%
%TO.C,REF\u002A\u002A*%
X58815000Y-21520000D03*
%TD*%
%TO.C,REF\u002A\u002A*%
X76340000Y-55350000D03*
%TD*%
%TO.C,REF\u002A\u002A*%
X78340000Y-8200000D03*
%TD*%
D11*
%TO.C,J2*%
X50969000Y-25514000D03*
D12*
X48429000Y-25514000D03*
X50969000Y-28054000D03*
X48429000Y-28054000D03*
X50969000Y-30594000D03*
X48429000Y-30594000D03*
X50969000Y-33134000D03*
X48429000Y-33134000D03*
X50969000Y-35674000D03*
X48429000Y-35674000D03*
%TD*%
D10*
%TO.C,REF\u002A\u002A*%
X57815000Y-71070000D03*
%TD*%
%TO.C,REF\u002A\u002A*%
X75340000Y-37230000D03*
%TD*%
%TO.C,REF\u002A\u002A*%
X77340000Y-55350000D03*
%TD*%
%TO.C,REF\u002A\u002A*%
X16760000Y-8200000D03*
%TD*%
%TO.C,REF\u002A\u002A*%
X37285000Y-52950000D03*
%TD*%
%TO.C,REF\u002A\u002A*%
X47250000Y-62010000D03*
%TD*%
%TO.C,REF\u002A\u002A*%
X76340000Y-84380000D03*
%TD*%
%TO.C,REF\u002A\u002A*%
X47250000Y-29575000D03*
%TD*%
D11*
%TO.C,J2*%
X11917000Y-9798000D03*
D12*
X9377000Y-9798000D03*
X11917000Y-12338000D03*
X9377000Y-12338000D03*
X11917000Y-14878000D03*
X9377000Y-14878000D03*
X11917000Y-17418000D03*
X9377000Y-17418000D03*
X11917000Y-19958000D03*
X9377000Y-19958000D03*
%TD*%
D10*
%TO.C,REF\u002A\u002A*%
X64380000Y-27575000D03*
%TD*%
%TO.C,REF\u002A\u002A*%
X14760000Y-55350000D03*
%TD*%
%TO.C,REF\u002A\u002A*%
X83900000Y-33575000D03*
%TD*%
%TO.C,REF\u002A\u002A*%
X25320000Y-64010000D03*
%TD*%
%TO.C,REF\u002A\u002A*%
X47250000Y-44290000D03*
%TD*%
%TO.C,REF\u002A\u002A*%
X66780000Y-63010000D03*
%TD*%
%TO.C,REF\u002A\u002A*%
X8200000Y-12860000D03*
%TD*%
%TO.C,REF\u002A\u002A*%
X8200000Y-59010000D03*
%TD*%
%TO.C,REF\u002A\u002A*%
X8000000Y-88080000D03*
%TD*%
%TO.C,REF\u002A\u002A*%
X47250000Y-43290000D03*
%TD*%
%TO.C,REF\u002A\u002A*%
X19760000Y-39630000D03*
%TD*%
D11*
%TO.C,J1*%
X60449000Y-59991000D03*
D12*
X62989000Y-59991000D03*
X60449000Y-62531000D03*
X62989000Y-62531000D03*
X60449000Y-65071000D03*
X62989000Y-65071000D03*
%TD*%
D11*
%TO.C,J1*%
X60449000Y-75707000D03*
D12*
X62989000Y-75707000D03*
X60449000Y-78247000D03*
X62989000Y-78247000D03*
X60449000Y-80787000D03*
X62989000Y-80787000D03*
%TD*%
D10*
%TO.C,REF\u002A\u002A*%
X54815000Y-37230000D03*
%TD*%
%TO.C,REF\u002A\u002A*%
X8200000Y-15860000D03*
%TD*%
%TO.C,REF\u002A\u002A*%
X52815000Y-21520000D03*
%TD*%
%TO.C,REF\u002A\u002A*%
X75340000Y-23920000D03*
%TD*%
%TO.C,REF\u002A\u002A*%
X33285000Y-8200000D03*
%TD*%
%TO.C,REF\u002A\u002A*%
X44850000Y-15860000D03*
%TD*%
%TO.C,REF\u002A\u002A*%
X25320000Y-78725000D03*
%TD*%
%TO.C,REF\u002A\u002A*%
X38285000Y-55350000D03*
%TD*%
%TO.C,REF\u002A\u002A*%
X27720000Y-17860000D03*
%TD*%
%TO.C,REF\u002A\u002A*%
X15760000Y-68670000D03*
%TD*%
%TO.C,REF\u002A\u002A*%
X44850000Y-17860000D03*
%TD*%
%TO.C,REF\u002A\u002A*%
X18760000Y-23920000D03*
%TD*%
%TO.C,REF\u002A\u002A*%
X47250000Y-59010000D03*
%TD*%
%TO.C,REF\u002A\u002A*%
X53815000Y-23920000D03*
%TD*%
%TO.C,REF\u002A\u002A*%
X44850000Y-59010000D03*
%TD*%
%TO.C,REF\u002A\u002A*%
X47250000Y-74725000D03*
%TD*%
%TO.C,REF\u002A\u002A*%
X14760000Y-68670000D03*
%TD*%
%TO.C,REF\u002A\u002A*%
X84100000Y-92080000D03*
%TD*%
%TO.C,REF\u002A\u002A*%
X83900000Y-77725000D03*
%TD*%
%TO.C,REF\u002A\u002A*%
X44850000Y-45290000D03*
%TD*%
%TO.C,REF\u002A\u002A*%
X53815000Y-52950000D03*
%TD*%
%TO.C,REF\u002A\u002A*%
X64380000Y-79725000D03*
%TD*%
%TO.C,REF\u002A\u002A*%
X66780000Y-16860000D03*
%TD*%
D11*
%TO.C,J1*%
X79975000Y-12843000D03*
D12*
X82515000Y-12843000D03*
X79975000Y-15383000D03*
X82515000Y-15383000D03*
X79975000Y-17923000D03*
X82515000Y-17923000D03*
%TD*%
D10*
%TO.C,REF\u002A\u002A*%
X36285000Y-68670000D03*
%TD*%
%TO.C,REF\u002A\u002A*%
X78340000Y-55350000D03*
%TD*%
D11*
%TO.C,J1*%
X60449000Y-28559000D03*
D12*
X62989000Y-28559000D03*
X60449000Y-31099000D03*
X62989000Y-31099000D03*
X60449000Y-33639000D03*
X62989000Y-33639000D03*
%TD*%
D10*
%TO.C,REF\u002A\u002A*%
X27720000Y-46290000D03*
%TD*%
%TO.C,REF\u002A\u002A*%
X53815000Y-8200000D03*
%TD*%
%TO.C,REF\u002A\u002A*%
X55815000Y-52950000D03*
%TD*%
D11*
%TO.C,J2*%
X11917000Y-25514000D03*
D12*
X9377000Y-25514000D03*
X11917000Y-28054000D03*
X9377000Y-28054000D03*
X11917000Y-30594000D03*
X9377000Y-30594000D03*
X11917000Y-33134000D03*
X9377000Y-33134000D03*
X11917000Y-35674000D03*
X9377000Y-35674000D03*
%TD*%
D10*
%TO.C,REF\u002A\u002A*%
X76340000Y-52950000D03*
%TD*%
%TO.C,REF\u002A\u002A*%
X8200000Y-45290000D03*
%TD*%
%TO.C,REF\u002A\u002A*%
X39285000Y-84380000D03*
%TD*%
%TO.C,REF\u002A\u002A*%
X15760000Y-39630000D03*
%TD*%
%TO.C,REF\u002A\u002A*%
X18760000Y-21520000D03*
%TD*%
%TO.C,REF\u002A\u002A*%
X47250000Y-13860000D03*
%TD*%
%TO.C,REF\u002A\u002A*%
X8200000Y-76725000D03*
%TD*%
%TO.C,REF\u002A\u002A*%
X15760000Y-37230000D03*
%TD*%
%TO.C,REF\u002A\u002A*%
X8200000Y-28575000D03*
%TD*%
%TO.C,REF\u002A\u002A*%
X44850000Y-74725000D03*
%TD*%
%TO.C,REF\u002A\u002A*%
X57815000Y-37230000D03*
%TD*%
%TO.C,REF\u002A\u002A*%
X83900000Y-46290000D03*
%TD*%
%TO.C,REF\u002A\u002A*%
X52815000Y-68670000D03*
%TD*%
%TO.C,REF\u002A\u002A*%
X15760000Y-21520000D03*
%TD*%
%TO.C,REF\u002A\u002A*%
X83900000Y-65010000D03*
%TD*%
%TO.C,REF\u002A\u002A*%
X64380000Y-76725000D03*
%TD*%
%TO.C,REF\u002A\u002A*%
X75340000Y-55350000D03*
%TD*%
D11*
%TO.C,J2*%
X70495000Y-72662000D03*
D12*
X67955000Y-72662000D03*
X70495000Y-75202000D03*
X67955000Y-75202000D03*
X70495000Y-77742000D03*
X67955000Y-77742000D03*
X70495000Y-80282000D03*
X67955000Y-80282000D03*
X70495000Y-82822000D03*
X67955000Y-82822000D03*
%TD*%
D10*
%TO.C,REF\u002A\u002A*%
X44850000Y-13860000D03*
%TD*%
D11*
%TO.C,J2*%
X70495000Y-41230000D03*
D12*
X67955000Y-41230000D03*
X70495000Y-43770000D03*
X67955000Y-43770000D03*
X70495000Y-46310000D03*
X67955000Y-46310000D03*
X70495000Y-48850000D03*
X67955000Y-48850000D03*
X70495000Y-51390000D03*
X67955000Y-51390000D03*
%TD*%
D10*
%TO.C,REF\u002A\u002A*%
X39285000Y-23920000D03*
%TD*%
%TO.C,REF\u002A\u002A*%
X33285000Y-52950000D03*
%TD*%
%TO.C,REF\u002A\u002A*%
X36285000Y-39630000D03*
%TD*%
%TO.C,REF\u002A\u002A*%
X55815000Y-8200000D03*
%TD*%
%TO.C,REF\u002A\u002A*%
X66780000Y-74725000D03*
%TD*%
%TO.C,REF\u002A\u002A*%
X64380000Y-13860000D03*
%TD*%
D11*
%TO.C,J1*%
X21397000Y-44275000D03*
D12*
X23937000Y-44275000D03*
X21397000Y-46815000D03*
X23937000Y-46815000D03*
X21397000Y-49355000D03*
X23937000Y-49355000D03*
%TD*%
D10*
%TO.C,REF\u002A\u002A*%
X72340000Y-55350000D03*
%TD*%
%TO.C,REF\u002A\u002A*%
X56815000Y-71070000D03*
%TD*%
%TO.C,REF\u002A\u002A*%
X72340000Y-23920000D03*
%TD*%
D11*
%TO.C,J2*%
X70495000Y-9798000D03*
D12*
X67955000Y-9798000D03*
X70495000Y-12338000D03*
X67955000Y-12338000D03*
X70495000Y-14878000D03*
X67955000Y-14878000D03*
X70495000Y-17418000D03*
X67955000Y-17418000D03*
X70495000Y-19958000D03*
X67955000Y-19958000D03*
%TD*%
D10*
%TO.C,REF\u002A\u002A*%
X66780000Y-15860000D03*
%TD*%
%TO.C,REF\u002A\u002A*%
X27720000Y-75725000D03*
%TD*%
%TO.C,REF\u002A\u002A*%
X37285000Y-55350000D03*
%TD*%
%TO.C,REF\u002A\u002A*%
X8000000Y-4500000D03*
%TD*%
%TO.C,REF\u002A\u002A*%
X39285000Y-8200000D03*
%TD*%
%TO.C,REF\u002A\u002A*%
X76340000Y-39630000D03*
%TD*%
%TO.C,REF\u002A\u002A*%
X27720000Y-13860000D03*
%TD*%
%TO.C,REF\u002A\u002A*%
X8200000Y-16860000D03*
%TD*%
%TO.C,REF\u002A\u002A*%
X66780000Y-43290000D03*
%TD*%
%TO.C,REF\u002A\u002A*%
X52815000Y-23920000D03*
%TD*%
%TO.C,REF\u002A\u002A*%
X66780000Y-33575000D03*
%TD*%
%TO.C,REF\u002A\u002A*%
X36285000Y-52950000D03*
%TD*%
%TO.C,REF\u002A\u002A*%
X47250000Y-75725000D03*
%TD*%
%TO.C,REF\u002A\u002A*%
X77340000Y-21520000D03*
%TD*%
%TO.C,REF\u002A\u002A*%
X13760000Y-39630000D03*
%TD*%
%TO.C,REF\u002A\u002A*%
X64380000Y-74725000D03*
%TD*%
%TO.C,REF\u002A\u002A*%
X47250000Y-27575000D03*
%TD*%
%TO.C,REF\u002A\u002A*%
X47250000Y-45290000D03*
%TD*%
%TO.C,REF\u002A\u002A*%
X25320000Y-59010000D03*
%TD*%
%TO.C,REF\u002A\u002A*%
X18760000Y-8200000D03*
%TD*%
%TO.C,REF\u002A\u002A*%
X25320000Y-80725000D03*
%TD*%
%TO.C,REF\u002A\u002A*%
X83900000Y-61010000D03*
%TD*%
%TO.C,REF\u002A\u002A*%
X18760000Y-37230000D03*
%TD*%
%TO.C,REF\u002A\u002A*%
X25320000Y-30575000D03*
%TD*%
%TO.C,REF\u002A\u002A*%
X87600000Y-8000000D03*
%TD*%
%TO.C,REF\u002A\u002A*%
X35285000Y-37230000D03*
%TD*%
%TO.C,REF\u002A\u002A*%
X64380000Y-15860000D03*
%TD*%
%TO.C,REF\u002A\u002A*%
X27720000Y-16860000D03*
%TD*%
%TO.C,REF\u002A\u002A*%
X58815000Y-71070000D03*
%TD*%
%TO.C,REF\u002A\u002A*%
X84100000Y-3500000D03*
%TD*%
%TO.C,REF\u002A\u002A*%
X66780000Y-28575000D03*
%TD*%
%TO.C,REF\u002A\u002A*%
X36285000Y-8200000D03*
%TD*%
%TO.C,REF\u002A\u002A*%
X72340000Y-21520000D03*
%TD*%
%TO.C,REF\u002A\u002A*%
X44850000Y-60010000D03*
%TD*%
%TO.C,REF\u002A\u002A*%
X16760000Y-37230000D03*
%TD*%
%TO.C,REF\u002A\u002A*%
X64380000Y-59010000D03*
%TD*%
%TO.C,REF\u002A\u002A*%
X16760000Y-55350000D03*
%TD*%
%TO.C,REF\u002A\u002A*%
X47250000Y-48290000D03*
%TD*%
%TO.C,REF\u002A\u002A*%
X44850000Y-43290000D03*
%TD*%
%TO.C,REF\u002A\u002A*%
X8200000Y-79725000D03*
%TD*%
%TO.C,REF\u002A\u002A*%
X39285000Y-71070000D03*
%TD*%
%TO.C,REF\u002A\u002A*%
X35285000Y-68670000D03*
%TD*%
%TO.C,REF\u002A\u002A*%
X44850000Y-32575000D03*
%TD*%
%TO.C,REF\u002A\u002A*%
X54815000Y-52950000D03*
%TD*%
%TO.C,REF\u002A\u002A*%
X84100000Y-4500000D03*
%TD*%
%TO.C,REF\u002A\u002A*%
X8200000Y-14860000D03*
%TD*%
%TO.C,REF\u002A\u002A*%
X66780000Y-32575000D03*
%TD*%
%TO.C,REF\u002A\u002A*%
X13760000Y-21520000D03*
%TD*%
%TO.C,REF\u002A\u002A*%
X25320000Y-16860000D03*
%TD*%
%TO.C,REF\u002A\u002A*%
X56815000Y-84380000D03*
%TD*%
%TO.C,REF\u002A\u002A*%
X58815000Y-84380000D03*
%TD*%
%TO.C,REF\u002A\u002A*%
X25320000Y-48290000D03*
%TD*%
%TO.C,REF\u002A\u002A*%
X52815000Y-39630000D03*
%TD*%
%TO.C,REF\u002A\u002A*%
X72340000Y-8200000D03*
%TD*%
%TO.C,REF\u002A\u002A*%
X57815000Y-84380000D03*
%TD*%
%TO.C,REF\u002A\u002A*%
X16760000Y-84380000D03*
%TD*%
%TO.C,REF\u002A\u002A*%
X75340000Y-71070000D03*
%TD*%
%TO.C,REF\u002A\u002A*%
X44850000Y-80725000D03*
%TD*%
%TO.C,REF\u002A\u002A*%
X78340000Y-39630000D03*
%TD*%
%TO.C,REF\u002A\u002A*%
X74340000Y-21520000D03*
%TD*%
%TO.C,REF\u002A\u002A*%
X36285000Y-84380000D03*
%TD*%
%TO.C,REF\u002A\u002A*%
X27720000Y-65010000D03*
%TD*%
%TO.C,REF\u002A\u002A*%
X38285000Y-23920000D03*
%TD*%
%TO.C,REF\u002A\u002A*%
X47250000Y-46290000D03*
%TD*%
%TO.C,REF\u002A\u002A*%
X8000000Y-3500000D03*
%TD*%
%TO.C,REF\u002A\u002A*%
X33285000Y-23920000D03*
%TD*%
%TO.C,REF\u002A\u002A*%
X15760000Y-71070000D03*
%TD*%
%TO.C,REF\u002A\u002A*%
X66780000Y-31575000D03*
%TD*%
%TO.C,REF\u002A\u002A*%
X35285000Y-23920000D03*
%TD*%
%TO.C,REF\u002A\u002A*%
X25320000Y-76725000D03*
%TD*%
%TO.C,REF\u002A\u002A*%
X47250000Y-60010000D03*
%TD*%
%TO.C,REF\u002A\u002A*%
X34285000Y-55350000D03*
%TD*%
%TO.C,REF\u002A\u002A*%
X17760000Y-71070000D03*
%TD*%
%TO.C,REF\u002A\u002A*%
X34285000Y-21520000D03*
%TD*%
%TO.C,REF\u002A\u002A*%
X4500000Y-8000000D03*
%TD*%
%TO.C,REF\u002A\u002A*%
X58815000Y-39630000D03*
%TD*%
%TO.C,REF\u002A\u002A*%
X52815000Y-8200000D03*
%TD*%
%TO.C,REF\u002A\u002A*%
X83900000Y-48290000D03*
%TD*%
D11*
%TO.C,J2*%
X70495000Y-56946000D03*
D12*
X67955000Y-56946000D03*
X70495000Y-59486000D03*
X67955000Y-59486000D03*
X70495000Y-62026000D03*
X67955000Y-62026000D03*
X70495000Y-64566000D03*
X67955000Y-64566000D03*
X70495000Y-67106000D03*
X67955000Y-67106000D03*
%TD*%
D10*
%TO.C,REF\u002A\u002A*%
X25320000Y-32575000D03*
%TD*%
%TO.C,REF\u002A\u002A*%
X54815000Y-55350000D03*
%TD*%
%TO.C,REF\u002A\u002A*%
X14760000Y-37230000D03*
%TD*%
%TO.C,REF\u002A\u002A*%
X8200000Y-13860000D03*
%TD*%
%TO.C,REF\u002A\u002A*%
X8200000Y-44290000D03*
%TD*%
%TO.C,REF\u002A\u002A*%
X1500000Y-84580000D03*
%TD*%
%TO.C,REF\u002A\u002A*%
X83900000Y-49290000D03*
%TD*%
%TO.C,REF\u002A\u002A*%
X83900000Y-47290000D03*
%TD*%
%TO.C,REF\u002A\u002A*%
X25320000Y-44290000D03*
%TD*%
%TO.C,REF\u002A\u002A*%
X66780000Y-30575000D03*
%TD*%
D11*
%TO.C,J2*%
X50969000Y-72662000D03*
D12*
X48429000Y-72662000D03*
X50969000Y-75202000D03*
X48429000Y-75202000D03*
X50969000Y-77742000D03*
X48429000Y-77742000D03*
X50969000Y-80282000D03*
X48429000Y-80282000D03*
X50969000Y-82822000D03*
X48429000Y-82822000D03*
%TD*%
D10*
%TO.C,REF\u002A\u002A*%
X47250000Y-31575000D03*
%TD*%
D11*
%TO.C,J1*%
X40923000Y-44275000D03*
D12*
X43463000Y-44275000D03*
X40923000Y-46815000D03*
X43463000Y-46815000D03*
X40923000Y-49355000D03*
X43463000Y-49355000D03*
%TD*%
D10*
%TO.C,REF\u002A\u002A*%
X83900000Y-13860000D03*
%TD*%
D11*
%TO.C,J2*%
X31443000Y-9798000D03*
D12*
X28903000Y-9798000D03*
X31443000Y-12338000D03*
X28903000Y-12338000D03*
X31443000Y-14878000D03*
X28903000Y-14878000D03*
X31443000Y-17418000D03*
X28903000Y-17418000D03*
X31443000Y-19958000D03*
X28903000Y-19958000D03*
%TD*%
D10*
%TO.C,REF\u002A\u002A*%
X27720000Y-43290000D03*
%TD*%
%TO.C,REF\u002A\u002A*%
X57815000Y-23920000D03*
%TD*%
%TO.C,REF\u002A\u002A*%
X44850000Y-65010000D03*
%TD*%
%TO.C,REF\u002A\u002A*%
X66780000Y-61010000D03*
%TD*%
%TO.C,REF\u002A\u002A*%
X66780000Y-62010000D03*
%TD*%
%TO.C,REF\u002A\u002A*%
X13760000Y-8200000D03*
%TD*%
%TO.C,REF\u002A\u002A*%
X8000000Y-91080000D03*
%TD*%
%TO.C,REF\u002A\u002A*%
X66780000Y-80725000D03*
%TD*%
D11*
%TO.C,J1*%
X21397000Y-28559000D03*
D12*
X23937000Y-28559000D03*
X21397000Y-31099000D03*
X23937000Y-31099000D03*
X21397000Y-33639000D03*
X23937000Y-33639000D03*
%TD*%
D10*
%TO.C,REF\u002A\u002A*%
X27720000Y-47290000D03*
%TD*%
%TO.C,REF\u002A\u002A*%
X15760000Y-52950000D03*
%TD*%
%TO.C,REF\u002A\u002A*%
X8200000Y-47290000D03*
%TD*%
%TO.C,REF\u002A\u002A*%
X64380000Y-14860000D03*
%TD*%
%TO.C,REF\u002A\u002A*%
X66780000Y-49290000D03*
%TD*%
%TO.C,REF\u002A\u002A*%
X64380000Y-77725000D03*
%TD*%
%TO.C,REF\u002A\u002A*%
X47250000Y-64010000D03*
%TD*%
%TO.C,REF\u002A\u002A*%
X25320000Y-60010000D03*
%TD*%
%TO.C,REF\u002A\u002A*%
X17760000Y-8200000D03*
%TD*%
%TO.C,REF\u002A\u002A*%
X8200000Y-63010000D03*
%TD*%
%TO.C,REF\u002A\u002A*%
X8000000Y-500000D03*
%TD*%
D11*
%TO.C,J1*%
X21397000Y-12843000D03*
D12*
X23937000Y-12843000D03*
X21397000Y-15383000D03*
X23937000Y-15383000D03*
X21397000Y-17923000D03*
X23937000Y-17923000D03*
%TD*%
D10*
%TO.C,REF\u002A\u002A*%
X53815000Y-68670000D03*
%TD*%
%TO.C,REF\u002A\u002A*%
X83900000Y-63010000D03*
%TD*%
%TO.C,REF\u002A\u002A*%
X39285000Y-21520000D03*
%TD*%
%TO.C,REF\u002A\u002A*%
X57815000Y-21520000D03*
%TD*%
%TO.C,REF\u002A\u002A*%
X33285000Y-39630000D03*
%TD*%
%TO.C,REF\u002A\u002A*%
X33285000Y-84380000D03*
%TD*%
%TO.C,REF\u002A\u002A*%
X83900000Y-29575000D03*
%TD*%
%TO.C,REF\u002A\u002A*%
X14760000Y-23920000D03*
%TD*%
%TO.C,REF\u002A\u002A*%
X66780000Y-79725000D03*
%TD*%
%TO.C,REF\u002A\u002A*%
X8200000Y-11860000D03*
%TD*%
%TO.C,REF\u002A\u002A*%
X74340000Y-39630000D03*
%TD*%
%TO.C,REF\u002A\u002A*%
X27720000Y-11860000D03*
%TD*%
%TO.C,REF\u002A\u002A*%
X90600000Y-84580000D03*
%TD*%
%TO.C,REF\u002A\u002A*%
X8200000Y-48290000D03*
%TD*%
%TO.C,REF\u002A\u002A*%
X54815000Y-71070000D03*
%TD*%
%TO.C,REF\u002A\u002A*%
X8200000Y-77725000D03*
%TD*%
%TO.C,REF\u002A\u002A*%
X27720000Y-45290000D03*
%TD*%
%TO.C,REF\u002A\u002A*%
X52815000Y-71070000D03*
%TD*%
%TO.C,REF\u002A\u002A*%
X52815000Y-84380000D03*
%TD*%
D11*
%TO.C,J2*%
X11917000Y-41230000D03*
D12*
X9377000Y-41230000D03*
X11917000Y-43770000D03*
X9377000Y-43770000D03*
X11917000Y-46310000D03*
X9377000Y-46310000D03*
X11917000Y-48850000D03*
X9377000Y-48850000D03*
X11917000Y-51390000D03*
X9377000Y-51390000D03*
%TD*%
D10*
%TO.C,REF\u002A\u002A*%
X54815000Y-21520000D03*
%TD*%
%TO.C,REF\u002A\u002A*%
X64380000Y-65010000D03*
%TD*%
%TO.C,REF\u002A\u002A*%
X66780000Y-77725000D03*
%TD*%
%TO.C,REF\u002A\u002A*%
X74340000Y-68670000D03*
%TD*%
%TO.C,REF\u002A\u002A*%
X83900000Y-79725000D03*
%TD*%
D11*
%TO.C,J1*%
X60449000Y-44275000D03*
D12*
X62989000Y-44275000D03*
X60449000Y-46815000D03*
X62989000Y-46815000D03*
X60449000Y-49355000D03*
X62989000Y-49355000D03*
%TD*%
D10*
%TO.C,REF\u002A\u002A*%
X44850000Y-44290000D03*
%TD*%
%TO.C,REF\u002A\u002A*%
X8200000Y-80725000D03*
%TD*%
%TO.C,REF\u002A\u002A*%
X73340000Y-23920000D03*
%TD*%
D11*
%TO.C,J1*%
X79975000Y-44275000D03*
D12*
X82515000Y-44275000D03*
X79975000Y-46815000D03*
X82515000Y-46815000D03*
X79975000Y-49355000D03*
X82515000Y-49355000D03*
%TD*%
D10*
%TO.C,REF\u002A\u002A*%
X37285000Y-21520000D03*
%TD*%
%TO.C,REF\u002A\u002A*%
X66780000Y-12860000D03*
%TD*%
%TO.C,REF\u002A\u002A*%
X18760000Y-39630000D03*
%TD*%
%TO.C,REF\u002A\u002A*%
X77340000Y-37230000D03*
%TD*%
%TO.C,REF\u002A\u002A*%
X78340000Y-71070000D03*
%TD*%
%TO.C,REF\u002A\u002A*%
X66780000Y-65010000D03*
%TD*%
%TO.C,REF\u002A\u002A*%
X44850000Y-61010000D03*
%TD*%
%TO.C,REF\u002A\u002A*%
X27720000Y-30575000D03*
%TD*%
%TO.C,REF\u002A\u002A*%
X58815000Y-55350000D03*
%TD*%
%TO.C,REF\u002A\u002A*%
X35285000Y-84380000D03*
%TD*%
%TO.C,REF\u002A\u002A*%
X14760000Y-71070000D03*
%TD*%
%TO.C,REF\u002A\u002A*%
X25320000Y-63010000D03*
%TD*%
%TO.C,REF\u002A\u002A*%
X44850000Y-49290000D03*
%TD*%
%TO.C,REF\u002A\u002A*%
X13760000Y-55350000D03*
%TD*%
D11*
%TO.C,J1*%
X40923000Y-59991000D03*
D12*
X43463000Y-59991000D03*
X40923000Y-62531000D03*
X43463000Y-62531000D03*
X40923000Y-65071000D03*
X43463000Y-65071000D03*
%TD*%
D10*
%TO.C,REF\u002A\u002A*%
X87600000Y-84580000D03*
%TD*%
%TO.C,REF\u002A\u002A*%
X25320000Y-12860000D03*
%TD*%
%TO.C,REF\u002A\u002A*%
X57815000Y-52950000D03*
%TD*%
%TO.C,REF\u002A\u002A*%
X25320000Y-45290000D03*
%TD*%
D11*
%TO.C,J2*%
X31443000Y-72662000D03*
D12*
X28903000Y-72662000D03*
X31443000Y-75202000D03*
X28903000Y-75202000D03*
X31443000Y-77742000D03*
X28903000Y-77742000D03*
X31443000Y-80282000D03*
X28903000Y-80282000D03*
X31443000Y-82822000D03*
X28903000Y-82822000D03*
%TD*%
D10*
%TO.C,REF\u002A\u002A*%
X19760000Y-71070000D03*
%TD*%
%TO.C,REF\u002A\u002A*%
X38285000Y-52950000D03*
%TD*%
%TO.C,REF\u002A\u002A*%
X39285000Y-55350000D03*
%TD*%
%TO.C,REF\u002A\u002A*%
X75340000Y-68670000D03*
%TD*%
%TO.C,REF\u002A\u002A*%
X17760000Y-55350000D03*
%TD*%
%TO.C,REF\u002A\u002A*%
X34285000Y-52950000D03*
%TD*%
%TO.C,REF\u002A\u002A*%
X83900000Y-59010000D03*
%TD*%
%TO.C,REF\u002A\u002A*%
X55815000Y-39630000D03*
%TD*%
%TO.C,REF\u002A\u002A*%
X8200000Y-32575000D03*
%TD*%
%TO.C,REF\u002A\u002A*%
X74340000Y-71070000D03*
%TD*%
%TO.C,REF\u002A\u002A*%
X8200000Y-62010000D03*
%TD*%
%TO.C,REF\u002A\u002A*%
X18760000Y-68670000D03*
%TD*%
%TO.C,REF\u002A\u002A*%
X25320000Y-15860000D03*
%TD*%
%TO.C,REF\u002A\u002A*%
X64380000Y-64010000D03*
%TD*%
%TO.C,REF\u002A\u002A*%
X17760000Y-39630000D03*
%TD*%
%TO.C,REF\u002A\u002A*%
X16760000Y-71070000D03*
%TD*%
%TO.C,REF\u002A\u002A*%
X17760000Y-21520000D03*
%TD*%
%TO.C,REF\u002A\u002A*%
X39285000Y-39630000D03*
%TD*%
%TO.C,REF\u002A\u002A*%
X47250000Y-12860000D03*
%TD*%
%TO.C,REF\u002A\u002A*%
X17760000Y-68670000D03*
%TD*%
%TO.C,REF\u002A\u002A*%
X83900000Y-76725000D03*
%TD*%
%TO.C,REF\u002A\u002A*%
X76340000Y-23920000D03*
%TD*%
%TO.C,REF\u002A\u002A*%
X19760000Y-23920000D03*
%TD*%
%TO.C,REF\u002A\u002A*%
X27720000Y-61010000D03*
%TD*%
%TO.C,REF\u002A\u002A*%
X27720000Y-27575000D03*
%TD*%
%TO.C,REF\u002A\u002A*%
X27720000Y-78725000D03*
%TD*%
%TO.C,REF\u002A\u002A*%
X25320000Y-61010000D03*
%TD*%
%TO.C,REF\u002A\u002A*%
X64380000Y-16860000D03*
%TD*%
D11*
%TO.C,J1*%
X21397000Y-59991000D03*
D12*
X23937000Y-59991000D03*
X21397000Y-62531000D03*
X23937000Y-62531000D03*
X21397000Y-65071000D03*
X23937000Y-65071000D03*
%TD*%
D10*
%TO.C,REF\u002A\u002A*%
X13760000Y-52950000D03*
%TD*%
%TO.C,REF\u002A\u002A*%
X47250000Y-33575000D03*
%TD*%
%TO.C,REF\u002A\u002A*%
X19760000Y-68670000D03*
%TD*%
%TO.C,REF\u002A\u002A*%
X8200000Y-46290000D03*
%TD*%
%TO.C,REF\u002A\u002A*%
X8200000Y-78725000D03*
%TD*%
D11*
%TO.C,J2*%
X31443000Y-56946000D03*
D12*
X28903000Y-56946000D03*
X31443000Y-59486000D03*
X28903000Y-59486000D03*
X31443000Y-62026000D03*
X28903000Y-62026000D03*
X31443000Y-64566000D03*
X28903000Y-64566000D03*
X31443000Y-67106000D03*
X28903000Y-67106000D03*
%TD*%
D10*
%TO.C,REF\u002A\u002A*%
X44850000Y-63010000D03*
%TD*%
%TO.C,REF\u002A\u002A*%
X15760000Y-8200000D03*
%TD*%
%TO.C,REF\u002A\u002A*%
X74340000Y-52950000D03*
%TD*%
%TO.C,REF\u002A\u002A*%
X44850000Y-16860000D03*
%TD*%
%TO.C,REF\u002A\u002A*%
X53815000Y-71070000D03*
%TD*%
%TO.C,REF\u002A\u002A*%
X64380000Y-28575000D03*
%TD*%
%TO.C,REF\u002A\u002A*%
X66780000Y-27575000D03*
%TD*%
%TO.C,REF\u002A\u002A*%
X19760000Y-8200000D03*
%TD*%
%TO.C,REF\u002A\u002A*%
X77340000Y-8200000D03*
%TD*%
%TO.C,REF\u002A\u002A*%
X47250000Y-28575000D03*
%TD*%
%TO.C,REF\u002A\u002A*%
X38285000Y-71070000D03*
%TD*%
%TO.C,REF\u002A\u002A*%
X66780000Y-48290000D03*
%TD*%
%TO.C,REF\u002A\u002A*%
X66780000Y-29575000D03*
%TD*%
%TO.C,REF\u002A\u002A*%
X19760000Y-52950000D03*
%TD*%
%TO.C,REF\u002A\u002A*%
X13760000Y-23920000D03*
%TD*%
%TO.C,REF\u002A\u002A*%
X64380000Y-78725000D03*
%TD*%
%TO.C,REF\u002A\u002A*%
X19760000Y-55350000D03*
%TD*%
%TO.C,REF\u002A\u002A*%
X39285000Y-52950000D03*
%TD*%
%TO.C,REF\u002A\u002A*%
X18760000Y-55350000D03*
%TD*%
D11*
%TO.C,J2*%
X11917000Y-72662000D03*
D12*
X9377000Y-72662000D03*
X11917000Y-75202000D03*
X9377000Y-75202000D03*
X11917000Y-77742000D03*
X9377000Y-77742000D03*
X11917000Y-80282000D03*
X9377000Y-80282000D03*
X11917000Y-82822000D03*
X9377000Y-82822000D03*
%TD*%
D10*
%TO.C,REF\u002A\u002A*%
X34285000Y-23920000D03*
%TD*%
%TO.C,REF\u002A\u002A*%
X8200000Y-64010000D03*
%TD*%
%TO.C,REF\u002A\u002A*%
X83900000Y-14860000D03*
%TD*%
%TO.C,REF\u002A\u002A*%
X91600000Y-8000000D03*
%TD*%
%TO.C,REF\u002A\u002A*%
X36285000Y-55350000D03*
%TD*%
%TO.C,REF\u002A\u002A*%
X13760000Y-71070000D03*
%TD*%
%TO.C,REF\u002A\u002A*%
X25320000Y-75725000D03*
%TD*%
%TO.C,REF\u002A\u002A*%
X47250000Y-49290000D03*
%TD*%
%TO.C,REF\u002A\u002A*%
X83900000Y-15860000D03*
%TD*%
%TO.C,REF\u002A\u002A*%
X27720000Y-60010000D03*
%TD*%
%TO.C,REF\u002A\u002A*%
X25320000Y-11860000D03*
%TD*%
%TO.C,REF\u002A\u002A*%
X72340000Y-71070000D03*
%TD*%
%TO.C,REF\u002A\u002A*%
X53815000Y-39630000D03*
%TD*%
%TO.C,REF\u002A\u002A*%
X58815000Y-23920000D03*
%TD*%
%TO.C,REF\u002A\u002A*%
X17760000Y-23920000D03*
%TD*%
%TO.C,REF\u002A\u002A*%
X53815000Y-21520000D03*
%TD*%
%TO.C,REF\u002A\u002A*%
X55815000Y-55350000D03*
%TD*%
%TO.C,REF\u002A\u002A*%
X64380000Y-62010000D03*
%TD*%
%TO.C,REF\u002A\u002A*%
X64380000Y-63010000D03*
%TD*%
%TO.C,REF\u002A\u002A*%
X8200000Y-75725000D03*
%TD*%
%TO.C,REF\u002A\u002A*%
X15760000Y-23920000D03*
%TD*%
%TO.C,REF\u002A\u002A*%
X91600000Y-84580000D03*
%TD*%
%TO.C,REF\u002A\u002A*%
X83900000Y-74725000D03*
%TD*%
%TO.C,REF\u002A\u002A*%
X2500000Y-84580000D03*
%TD*%
%TO.C,REF\u002A\u002A*%
X73340000Y-52950000D03*
%TD*%
%TO.C,REF\u002A\u002A*%
X27720000Y-28575000D03*
%TD*%
%TO.C,REF\u002A\u002A*%
X64380000Y-12860000D03*
%TD*%
%TO.C,REF\u002A\u002A*%
X56815000Y-37230000D03*
%TD*%
%TO.C,REF\u002A\u002A*%
X77340000Y-71070000D03*
%TD*%
%TO.C,REF\u002A\u002A*%
X44850000Y-27575000D03*
%TD*%
%TO.C,REF\u002A\u002A*%
X39285000Y-68670000D03*
%TD*%
%TO.C,REF\u002A\u002A*%
X8000000Y-2500000D03*
%TD*%
%TO.C,REF\u002A\u002A*%
X57815000Y-39630000D03*
%TD*%
%TO.C,REF\u002A\u002A*%
X83900000Y-80725000D03*
%TD*%
%TO.C,REF\u002A\u002A*%
X83900000Y-12860000D03*
%TD*%
%TO.C,REF\u002A\u002A*%
X27720000Y-33575000D03*
%TD*%
%TO.C,REF\u002A\u002A*%
X47250000Y-14860000D03*
%TD*%
%TO.C,REF\u002A\u002A*%
X83900000Y-62010000D03*
%TD*%
%TO.C,REF\u002A\u002A*%
X3500000Y-8000000D03*
%TD*%
%TO.C,REF\u002A\u002A*%
X57815000Y-55350000D03*
%TD*%
%TO.C,REF\u002A\u002A*%
X17760000Y-84380000D03*
%TD*%
%TO.C,REF\u002A\u002A*%
X64380000Y-48290000D03*
%TD*%
%TO.C,REF\u002A\u002A*%
X27720000Y-80725000D03*
%TD*%
%TO.C,REF\u002A\u002A*%
X64380000Y-61010000D03*
%TD*%
%TO.C,REF\u002A\u002A*%
X8200000Y-17860000D03*
%TD*%
%TO.C,REF\u002A\u002A*%
X33285000Y-21520000D03*
%TD*%
%TO.C,REF\u002A\u002A*%
X73340000Y-71070000D03*
%TD*%
%TO.C,REF\u002A\u002A*%
X77340000Y-23920000D03*
%TD*%
%TO.C,REF\u002A\u002A*%
X47250000Y-11860000D03*
%TD*%
%TO.C,REF\u002A\u002A*%
X27720000Y-63010000D03*
%TD*%
%TO.C,REF\u002A\u002A*%
X58815000Y-37230000D03*
%TD*%
%TO.C,REF\u002A\u002A*%
X27720000Y-32575000D03*
%TD*%
%TO.C,REF\u002A\u002A*%
X66780000Y-11860000D03*
%TD*%
%TO.C,REF\u002A\u002A*%
X35285000Y-52950000D03*
%TD*%
%TO.C,REF\u002A\u002A*%
X27720000Y-29575000D03*
%TD*%
%TO.C,REF\u002A\u002A*%
X66780000Y-44290000D03*
%TD*%
D11*
%TO.C,J1*%
X40923000Y-75707000D03*
D12*
X43463000Y-75707000D03*
X40923000Y-78247000D03*
X43463000Y-78247000D03*
X40923000Y-80787000D03*
X43463000Y-80787000D03*
%TD*%
D10*
%TO.C,REF\u002A\u002A*%
X25320000Y-74725000D03*
%TD*%
%TO.C,REF\u002A\u002A*%
X56815000Y-39630000D03*
%TD*%
%TO.C,REF\u002A\u002A*%
X76340000Y-68670000D03*
%TD*%
%TO.C,REF\u002A\u002A*%
X83900000Y-31575000D03*
%TD*%
%TO.C,REF\u002A\u002A*%
X83900000Y-30575000D03*
%TD*%
%TO.C,REF\u002A\u002A*%
X73340000Y-68670000D03*
%TD*%
%TO.C,REF\u002A\u002A*%
X78340000Y-84380000D03*
%TD*%
%TO.C,REF\u002A\u002A*%
X36285000Y-37230000D03*
%TD*%
%TO.C,REF\u002A\u002A*%
X27720000Y-14860000D03*
%TD*%
%TO.C,REF\u002A\u002A*%
X44850000Y-46290000D03*
%TD*%
%TO.C,REF\u002A\u002A*%
X66780000Y-14860000D03*
%TD*%
%TO.C,REF\u002A\u002A*%
X38285000Y-84380000D03*
%TD*%
%TO.C,REF\u002A\u002A*%
X66780000Y-78725000D03*
%TD*%
%TO.C,REF\u002A\u002A*%
X37285000Y-71070000D03*
%TD*%
%TO.C,REF\u002A\u002A*%
X54815000Y-68670000D03*
%TD*%
%TO.C,REF\u002A\u002A*%
X15760000Y-55350000D03*
%TD*%
%TO.C,REF\u002A\u002A*%
X66780000Y-64010000D03*
%TD*%
%TO.C,REF\u002A\u002A*%
X77340000Y-68670000D03*
%TD*%
%TO.C,REF\u002A\u002A*%
X8000000Y-1500000D03*
%TD*%
%TO.C,REF\u002A\u002A*%
X47250000Y-16860000D03*
%TD*%
%TO.C,REF\u002A\u002A*%
X35285000Y-21520000D03*
%TD*%
%TO.C,REF\u002A\u002A*%
X34285000Y-84380000D03*
%TD*%
%TO.C,REF\u002A\u002A*%
X78340000Y-23920000D03*
%TD*%
%TO.C,REF\u002A\u002A*%
X74340000Y-8200000D03*
%TD*%
%TO.C,REF\u002A\u002A*%
X27720000Y-44290000D03*
%TD*%
%TO.C,REF\u002A\u002A*%
X78340000Y-68670000D03*
%TD*%
%TO.C,REF\u002A\u002A*%
X55815000Y-71070000D03*
%TD*%
D11*
%TO.C,J1*%
X40923000Y-12843000D03*
D12*
X43463000Y-12843000D03*
X40923000Y-15383000D03*
X43463000Y-15383000D03*
X40923000Y-17923000D03*
X43463000Y-17923000D03*
%TD*%
D10*
%TO.C,REF\u002A\u002A*%
X83900000Y-27575000D03*
%TD*%
%TO.C,REF\u002A\u002A*%
X64380000Y-31575000D03*
%TD*%
%TO.C,REF\u002A\u002A*%
X2500000Y-8000000D03*
%TD*%
%TO.C,REF\u002A\u002A*%
X64380000Y-46290000D03*
%TD*%
%TO.C,REF\u002A\u002A*%
X8200000Y-65010000D03*
%TD*%
%TO.C,REF\u002A\u002A*%
X76340000Y-21520000D03*
%TD*%
%TO.C,REF\u002A\u002A*%
X78340000Y-52950000D03*
%TD*%
%TO.C,REF\u002A\u002A*%
X36285000Y-21520000D03*
%TD*%
%TO.C,REF\u002A\u002A*%
X74340000Y-23920000D03*
%TD*%
%TO.C,REF\u002A\u002A*%
X27720000Y-48290000D03*
%TD*%
%TO.C,REF\u002A\u002A*%
X74340000Y-37230000D03*
%TD*%
%TO.C,REF\u002A\u002A*%
X25320000Y-29575000D03*
%TD*%
%TO.C,REF\u002A\u002A*%
X25320000Y-46290000D03*
%TD*%
D11*
%TO.C,J1*%
X79975000Y-59991000D03*
D12*
X82515000Y-59991000D03*
X79975000Y-62531000D03*
X82515000Y-62531000D03*
X79975000Y-65071000D03*
X82515000Y-65071000D03*
%TD*%
D10*
%TO.C,REF\u002A\u002A*%
X55815000Y-68670000D03*
%TD*%
%TO.C,REF\u002A\u002A*%
X83900000Y-44290000D03*
%TD*%
%TO.C,REF\u002A\u002A*%
X27720000Y-62010000D03*
%TD*%
%TO.C,REF\u002A\u002A*%
X35285000Y-71070000D03*
%TD*%
%TO.C,REF\u002A\u002A*%
X25320000Y-28575000D03*
%TD*%
%TO.C,REF\u002A\u002A*%
X47250000Y-79725000D03*
%TD*%
%TO.C,REF\u002A\u002A*%
X89600000Y-8000000D03*
%TD*%
%TO.C,REF\u002A\u002A*%
X66780000Y-17860000D03*
%TD*%
%TO.C,REF\u002A\u002A*%
X16760000Y-21520000D03*
%TD*%
%TO.C,REF\u002A\u002A*%
X37285000Y-84380000D03*
%TD*%
%TO.C,REF\u002A\u002A*%
X25320000Y-31575000D03*
%TD*%
%TO.C,REF\u002A\u002A*%
X44850000Y-79725000D03*
%TD*%
%TO.C,REF\u002A\u002A*%
X17760000Y-52950000D03*
%TD*%
%TO.C,REF\u002A\u002A*%
X25320000Y-17860000D03*
%TD*%
%TO.C,REF\u002A\u002A*%
X55815000Y-37230000D03*
%TD*%
%TO.C,REF\u002A\u002A*%
X44850000Y-77725000D03*
%TD*%
%TO.C,REF\u002A\u002A*%
X25320000Y-43290000D03*
%TD*%
%TO.C,REF\u002A\u002A*%
X34285000Y-37230000D03*
%TD*%
%TO.C,REF\u002A\u002A*%
X74340000Y-84380000D03*
%TD*%
%TO.C,REF\u002A\u002A*%
X38285000Y-8200000D03*
%TD*%
%TO.C,REF\u002A\u002A*%
X74340000Y-55350000D03*
%TD*%
D11*
%TO.C,J2*%
X31443000Y-25514000D03*
D12*
X28903000Y-25514000D03*
X31443000Y-28054000D03*
X28903000Y-28054000D03*
X31443000Y-30594000D03*
X28903000Y-30594000D03*
X31443000Y-33134000D03*
X28903000Y-33134000D03*
X31443000Y-35674000D03*
X28903000Y-35674000D03*
%TD*%
D10*
%TO.C,REF\u002A\u002A*%
X47250000Y-63010000D03*
%TD*%
%TO.C,REF\u002A\u002A*%
X44850000Y-12860000D03*
%TD*%
%TO.C,REF\u002A\u002A*%
X83900000Y-60010000D03*
%TD*%
%TO.C,REF\u002A\u002A*%
X55815000Y-23920000D03*
%TD*%
%TO.C,REF\u002A\u002A*%
X14760000Y-8200000D03*
%TD*%
%TO.C,REF\u002A\u002A*%
X14760000Y-84380000D03*
%TD*%
%TO.C,REF\u002A\u002A*%
X44850000Y-29575000D03*
%TD*%
%TO.C,REF\u002A\u002A*%
X47250000Y-76725000D03*
%TD*%
%TO.C,REF\u002A\u002A*%
X37285000Y-8200000D03*
%TD*%
%TO.C,REF\u002A\u002A*%
X72340000Y-52950000D03*
%TD*%
%TO.C,REF\u002A\u002A*%
X25320000Y-13860000D03*
%TD*%
%TO.C,REF\u002A\u002A*%
X66780000Y-76725000D03*
%TD*%
%TO.C,REF\u002A\u002A*%
X83900000Y-32575000D03*
%TD*%
%TO.C,REF\u002A\u002A*%
X64380000Y-43290000D03*
%TD*%
%TO.C,REF\u002A\u002A*%
X25320000Y-14860000D03*
%TD*%
%TO.C,REF\u002A\u002A*%
X47250000Y-78725000D03*
%TD*%
%TO.C,REF\u002A\u002A*%
X58815000Y-52950000D03*
%TD*%
%TO.C,REF\u002A\u002A*%
X8200000Y-43290000D03*
%TD*%
%TO.C,REF\u002A\u002A*%
X47250000Y-15860000D03*
%TD*%
%TO.C,REF\u002A\u002A*%
X8200000Y-74725000D03*
%TD*%
%TO.C,REF\u002A\u002A*%
X73340000Y-84380000D03*
%TD*%
%TO.C,REF\u002A\u002A*%
X83900000Y-78725000D03*
%TD*%
%TO.C,REF\u002A\u002A*%
X64380000Y-32575000D03*
%TD*%
%TO.C,REF\u002A\u002A*%
X72340000Y-84380000D03*
%TD*%
%TO.C,REF\u002A\u002A*%
X83900000Y-45290000D03*
%TD*%
%TO.C,REF\u002A\u002A*%
X13760000Y-84380000D03*
%TD*%
%TO.C,REF\u002A\u002A*%
X8200000Y-30575000D03*
%TD*%
%TO.C,REF\u002A\u002A*%
X27720000Y-12860000D03*
%TD*%
%TO.C,REF\u002A\u002A*%
X83900000Y-43290000D03*
%TD*%
%TO.C,REF\u002A\u002A*%
X27720000Y-15860000D03*
%TD*%
%TO.C,REF\u002A\u002A*%
X25320000Y-47290000D03*
%TD*%
%TO.C,REF\u002A\u002A*%
X37285000Y-23920000D03*
%TD*%
%TO.C,REF\u002A\u002A*%
X73340000Y-39630000D03*
%TD*%
%TO.C,REF\u002A\u002A*%
X38285000Y-39630000D03*
%TD*%
%TO.C,REF\u002A\u002A*%
X25320000Y-33575000D03*
%TD*%
%TO.C,REF\u002A\u002A*%
X64380000Y-45290000D03*
%TD*%
%TO.C,REF\u002A\u002A*%
X78340000Y-21520000D03*
%TD*%
%TO.C,REF\u002A\u002A*%
X44850000Y-75725000D03*
%TD*%
%TO.C,REF\u002A\u002A*%
X88600000Y-8000000D03*
%TD*%
%TO.C,REF\u002A\u002A*%
X84100000Y-89080000D03*
%TD*%
%TO.C,REF\u002A\u002A*%
X25320000Y-27575000D03*
%TD*%
%TO.C,REF\u002A\u002A*%
X54815000Y-8200000D03*
%TD*%
%TO.C,REF\u002A\u002A*%
X34285000Y-71070000D03*
%TD*%
%TO.C,REF\u002A\u002A*%
X64380000Y-60010000D03*
%TD*%
%TO.C,REF\u002A\u002A*%
X53815000Y-84380000D03*
%TD*%
%TO.C,REF\u002A\u002A*%
X33285000Y-68670000D03*
%TD*%
%TO.C,REF\u002A\u002A*%
X78340000Y-37230000D03*
%TD*%
%TO.C,REF\u002A\u002A*%
X56815000Y-52950000D03*
%TD*%
%TO.C,REF\u002A\u002A*%
X44850000Y-76725000D03*
%TD*%
%TO.C,REF\u002A\u002A*%
X55815000Y-84380000D03*
%TD*%
%TO.C,REF\u002A\u002A*%
X84100000Y-90080000D03*
%TD*%
%TO.C,REF\u002A\u002A*%
X52815000Y-37230000D03*
%TD*%
%TO.C,REF\u002A\u002A*%
X83900000Y-17860000D03*
%TD*%
%TO.C,REF\u002A\u002A*%
X75340000Y-8200000D03*
%TD*%
%TO.C,REF\u002A\u002A*%
X83900000Y-28575000D03*
%TD*%
%TO.C,REF\u002A\u002A*%
X72340000Y-39630000D03*
%TD*%
%TO.C,REF\u002A\u002A*%
X500000Y-84580000D03*
%TD*%
%TO.C,REF\u002A\u002A*%
X72340000Y-37230000D03*
%TD*%
%TO.C,REF\u002A\u002A*%
X47250000Y-30575000D03*
%TD*%
%TO.C,REF\u002A\u002A*%
X8000000Y-92080000D03*
%TD*%
%TO.C,REF\u002A\u002A*%
X44850000Y-28575000D03*
%TD*%
%TO.C,REF\u002A\u002A*%
X15760000Y-84380000D03*
%TD*%
%TO.C,REF\u002A\u002A*%
X44850000Y-14860000D03*
%TD*%
%TO.C,REF\u002A\u002A*%
X35285000Y-39630000D03*
%TD*%
%TO.C,REF\u002A\u002A*%
X66780000Y-45290000D03*
%TD*%
%TO.C,REF\u002A\u002A*%
X75340000Y-21520000D03*
%TD*%
%TO.C,REF\u002A\u002A*%
X54815000Y-39630000D03*
%TD*%
%TO.C,REF\u002A\u002A*%
X83900000Y-75725000D03*
%TD*%
D11*
%TO.C,J2*%
X31443000Y-41230000D03*
D12*
X28903000Y-41230000D03*
X31443000Y-43770000D03*
X28903000Y-43770000D03*
X31443000Y-46310000D03*
X28903000Y-46310000D03*
X31443000Y-48850000D03*
X28903000Y-48850000D03*
X31443000Y-51390000D03*
X28903000Y-51390000D03*
%TD*%
D10*
%TO.C,REF\u002A\u002A*%
X16760000Y-23920000D03*
%TD*%
%TO.C,REF\u002A\u002A*%
X54815000Y-23920000D03*
%TD*%
D11*
%TO.C,J2*%
X50969000Y-9798000D03*
D12*
X48429000Y-9798000D03*
X50969000Y-12338000D03*
X48429000Y-12338000D03*
X50969000Y-14878000D03*
X48429000Y-14878000D03*
X50969000Y-17418000D03*
X48429000Y-17418000D03*
X50969000Y-19958000D03*
X48429000Y-19958000D03*
%TD*%
D10*
%TO.C,REF\u002A\u002A*%
X8200000Y-60010000D03*
%TD*%
%TO.C,REF\u002A\u002A*%
X76340000Y-8200000D03*
%TD*%
%TO.C,REF\u002A\u002A*%
X13760000Y-37230000D03*
%TD*%
%TO.C,REF\u002A\u002A*%
X73340000Y-55350000D03*
%TD*%
%TO.C,REF\u002A\u002A*%
X19760000Y-37230000D03*
%TD*%
%TO.C,REF\u002A\u002A*%
X38285000Y-37230000D03*
%TD*%
%TO.C,REF\u002A\u002A*%
X34285000Y-68670000D03*
%TD*%
%TO.C,REF\u002A\u002A*%
X8000000Y-90080000D03*
%TD*%
%TO.C,REF\u002A\u002A*%
X64380000Y-80725000D03*
%TD*%
%TO.C,REF\u002A\u002A*%
X66780000Y-13860000D03*
%TD*%
%TO.C,REF\u002A\u002A*%
X83900000Y-16860000D03*
%TD*%
%TO.C,REF\u002A\u002A*%
X33285000Y-71070000D03*
%TD*%
%TO.C,REF\u002A\u002A*%
X4500000Y-84580000D03*
%TD*%
%TO.C,REF\u002A\u002A*%
X27720000Y-77725000D03*
%TD*%
%TO.C,REF\u002A\u002A*%
X25320000Y-62010000D03*
%TD*%
%TO.C,REF\u002A\u002A*%
X77340000Y-52950000D03*
%TD*%
%TO.C,REF\u002A\u002A*%
X77340000Y-84380000D03*
%TD*%
%TO.C,REF\u002A\u002A*%
X500000Y-8000000D03*
%TD*%
%TO.C,REF\u002A\u002A*%
X83900000Y-64010000D03*
%TD*%
%TO.C,REF\u002A\u002A*%
X25320000Y-79725000D03*
%TD*%
%TO.C,REF\u002A\u002A*%
X38285000Y-68670000D03*
%TD*%
%TO.C,REF\u002A\u002A*%
X73340000Y-8200000D03*
%TD*%
%TO.C,REF\u002A\u002A*%
X37285000Y-37230000D03*
%TD*%
%TO.C,REF\u002A\u002A*%
X34285000Y-39630000D03*
%TD*%
%TO.C,REF\u002A\u002A*%
X90600000Y-8000000D03*
%TD*%
%TO.C,REF\u002A\u002A*%
X84100000Y-91080000D03*
%TD*%
%TO.C,REF\u002A\u002A*%
X37285000Y-39630000D03*
%TD*%
%TO.C,REF\u002A\u002A*%
X19760000Y-84380000D03*
%TD*%
%TO.C,REF\u002A\u002A*%
X58815000Y-68670000D03*
%TD*%
%TO.C,REF\u002A\u002A*%
X16760000Y-52950000D03*
%TD*%
%TO.C,REF\u002A\u002A*%
X83900000Y-11860000D03*
%TD*%
%TO.C,REF\u002A\u002A*%
X64380000Y-47290000D03*
%TD*%
%TO.C,REF\u002A\u002A*%
X3500000Y-84580000D03*
%TD*%
%TO.C,REF\u002A\u002A*%
X36285000Y-71070000D03*
%TD*%
%TO.C,REF\u002A\u002A*%
X76340000Y-37230000D03*
%TD*%
%TO.C,REF\u002A\u002A*%
X64380000Y-49290000D03*
%TD*%
%TO.C,REF\u002A\u002A*%
X27720000Y-76725000D03*
%TD*%
%TO.C,REF\u002A\u002A*%
X52815000Y-55350000D03*
%TD*%
%TO.C,REF\u002A\u002A*%
X76340000Y-71070000D03*
%TD*%
%TO.C,REF\u002A\u002A*%
X33285000Y-55350000D03*
%TD*%
%TO.C,REF\u002A\u002A*%
X64380000Y-17860000D03*
%TD*%
%TO.C,REF\u002A\u002A*%
X56815000Y-21520000D03*
%TD*%
%TO.C,REF\u002A\u002A*%
X72340000Y-68670000D03*
%TD*%
%TO.C,REF\u002A\u002A*%
X44850000Y-31575000D03*
%TD*%
%TO.C,REF\u002A\u002A*%
X58815000Y-8200000D03*
%TD*%
%TO.C,REF\u002A\u002A*%
X47250000Y-32575000D03*
%TD*%
%TO.C,REF\u002A\u002A*%
X25320000Y-77725000D03*
%TD*%
%TO.C,REF\u002A\u002A*%
X54815000Y-84380000D03*
%TD*%
%TO.C,REF\u002A\u002A*%
X27720000Y-31575000D03*
%TD*%
%TO.C,REF\u002A\u002A*%
X84100000Y-1500000D03*
%TD*%
%TO.C,REF\u002A\u002A*%
X75340000Y-39630000D03*
%TD*%
%TO.C,REF\u002A\u002A*%
X8200000Y-49290000D03*
%TD*%
D11*
%TO.C,J1*%
X60449000Y-12843000D03*
D12*
X62989000Y-12843000D03*
X60449000Y-15383000D03*
X62989000Y-15383000D03*
X60449000Y-17923000D03*
X62989000Y-17923000D03*
%TD*%
D10*
%TO.C,REF\u002A\u002A*%
X35285000Y-55350000D03*
%TD*%
%TO.C,REF\u002A\u002A*%
X44850000Y-47290000D03*
%TD*%
M02*
