%TF.GenerationSoftware,KiCad,Pcbnew,(6.0.6)*%
%TF.CreationDate,2022-08-19T09:49:53-07:00*%
%TF.ProjectId,rrf_rpi_skr_adapter,7272665f-7270-4695-9f73-6b725f616461,rev?*%
%TF.SameCoordinates,PX8404630PY621abf0*%
%TF.FileFunction,Copper,L2,Bot*%
%TF.FilePolarity,Positive*%
%FSLAX46Y46*%
G04 Gerber Fmt 4.6, Leading zero omitted, Abs format (unit mm)*
G04 Created by KiCad (PCBNEW (6.0.6)) date 2022-08-19 09:49:53*
%MOMM*%
%LPD*%
G01*
G04 APERTURE LIST*
%TA.AperFunction,EtchedComponent*%
%ADD10C,0.381000*%
%TD*%
%TA.AperFunction,ComponentPad*%
%ADD11R,1.700000X1.700000*%
%TD*%
%TA.AperFunction,ComponentPad*%
%ADD12O,1.700000X1.700000*%
%TD*%
%TA.AperFunction,Conductor*%
%ADD13C,0.250000*%
%TD*%
G04 APERTURE END LIST*
D10*
%TO.C,REF\u002A\u002A*%
X8547100Y7155180D02*
X7747000Y7353300D01*
X8547100Y9354820D02*
X7045960Y9354820D01*
X9646920Y7254240D02*
X9146540Y7155180D01*
X9847580Y8854440D02*
X9847580Y10355580D01*
X7045960Y9354820D02*
X7045960Y9855200D01*
X10647680Y7955280D02*
X10045700Y7454900D01*
X9547860Y8953500D02*
X9547860Y10253980D01*
X9245600Y12153900D02*
X9847580Y11955780D01*
X7345680Y11653520D02*
X8046720Y12054840D01*
X10045700Y7454900D02*
X9646920Y7254240D01*
X9847580Y10355580D02*
X8646160Y10355580D01*
X7045960Y9954260D02*
X8646160Y9954260D01*
X7045960Y7955280D02*
X6647180Y8455660D01*
X11346180Y9654540D02*
X11346180Y9555480D01*
X11346180Y9555480D02*
X11247120Y8953500D01*
X11247120Y10253980D02*
X11346180Y9654540D01*
X10347960Y11653520D02*
X10845800Y11155680D01*
X6545580Y10553700D02*
X6847840Y11155680D01*
X8046720Y12054840D02*
X8646160Y12153900D01*
X8646160Y12153900D02*
X9245600Y12153900D01*
X9146540Y7155180D02*
X8547100Y7155180D01*
X6647180Y8455660D02*
X6347460Y9154160D01*
X6847840Y11155680D02*
X7345680Y11653520D01*
X8547100Y9654540D02*
X7246620Y9654540D01*
X8646160Y8854440D02*
X9847580Y8854440D01*
X7045960Y9753600D02*
X7045960Y9954260D01*
X10845800Y11155680D02*
X11148060Y10655300D01*
X11046460Y8455660D02*
X10647680Y7955280D01*
X8945880Y8854440D02*
X8945880Y10154920D01*
X11247120Y8953500D02*
X11046460Y8455660D01*
X6347460Y9954260D02*
X6545580Y10553700D01*
X10746740Y9654540D02*
X10347960Y9654540D01*
X8646160Y10355580D02*
X8646160Y8854440D01*
X6347460Y9154160D02*
X6347460Y9954260D01*
X11148060Y10655300D02*
X11247120Y10253980D01*
X9847580Y11955780D02*
X10347960Y11653520D01*
X7747000Y7353300D02*
X7045960Y7955280D01*
X9245600Y10154920D02*
X9245600Y8953500D01*
X10861746Y9654540D02*
G75*
G03*
X10861746Y9654540I-315666J0D01*
G01*
X7735240Y3360560D02*
X7935900Y3561220D01*
X6236640Y4259720D02*
X6434760Y4859160D01*
X11235360Y3960000D02*
X11235360Y3860940D01*
X9736760Y6261240D02*
X10237140Y5958980D01*
X10935640Y2761120D02*
X10536860Y2260740D01*
X9635160Y2761120D02*
X9437040Y2458860D01*
X9736760Y5260480D02*
X9736760Y4960760D01*
X8535340Y6459360D02*
X9134780Y6459360D01*
X9635160Y3459620D02*
X9736760Y3159900D01*
X10237140Y5958980D02*
X10734980Y5461140D01*
X6536360Y2761120D02*
X6236640Y3459620D01*
X9536100Y5560200D02*
X9635160Y5461140D01*
X7836840Y2659520D02*
X7735240Y2959240D01*
X10536860Y2260740D02*
X9934880Y1760360D01*
X6935140Y2260740D02*
X6536360Y2761120D01*
X6434760Y4859160D02*
X6737020Y5461140D01*
X9134780Y6459360D02*
X9736760Y6261240D01*
X7735240Y4960760D02*
X7735240Y5158880D01*
X7636180Y1658760D02*
X6935140Y2260740D01*
X11235360Y3860940D02*
X11136300Y3258960D01*
X9736760Y3159900D02*
X9635160Y2761120D01*
X11037240Y4960760D02*
X11136300Y4559440D01*
X9635160Y4661040D02*
X9236380Y4460380D01*
X9236380Y4460380D02*
X8736000Y4358780D01*
X8337220Y4358780D02*
X7935900Y4559440D01*
X9035720Y2359800D02*
X8636940Y2359800D01*
X7735240Y2959240D02*
X7735240Y3360560D01*
X8736000Y4358780D02*
X8337220Y4358780D01*
X9635160Y5461140D02*
X9736760Y5260480D01*
X9536100Y3561220D02*
X9635160Y3459620D01*
X7935900Y6360300D02*
X8535340Y6459360D01*
X6737020Y5461140D02*
X7234860Y5958980D01*
X9934880Y1760360D02*
X9536100Y1559700D01*
X7234860Y5958980D02*
X7935900Y6360300D01*
X11136300Y3258960D02*
X10935640Y2761120D01*
X8436280Y1460640D02*
X7636180Y1658760D01*
X7935900Y4559440D02*
X7735240Y4960760D01*
X9035720Y1460640D02*
X8436280Y1460640D01*
X9736760Y4960760D02*
X9635160Y4661040D01*
X9437040Y2458860D02*
X9035720Y2359800D01*
X7735240Y5461140D02*
X7935900Y5560200D01*
X10734980Y5461140D02*
X11037240Y4960760D01*
X11136300Y4559440D02*
X11235360Y3960000D01*
X8136560Y2458860D02*
X7836840Y2659520D01*
X9536100Y1559700D02*
X9035720Y1460640D01*
X7735240Y5158880D02*
X7735240Y5461140D01*
X8636940Y2359800D02*
X8136560Y2458860D01*
X6236640Y3459620D02*
X6236640Y4259720D01*
%TD*%
D11*
%TO.P,J2,1,Pin_1*%
%TO.N,PF13*%
X3920000Y11920000D03*
D12*
%TO.P,J2,2,Pin_2*%
%TO.N,GND*%
X1380000Y11920000D03*
%TO.P,J2,3,Pin_3*%
%TO.N,RST*%
X3920000Y9380000D03*
%TO.P,J2,4,Pin_4*%
%TO.N,PF12*%
X1380000Y9380000D03*
%TO.P,J2,5,Pin_5*%
%TO.N,PB15*%
X3920000Y6840000D03*
%TO.P,J2,6,Pin_6*%
%TO.N,PF11*%
X1380000Y6840000D03*
%TO.P,J2,7,Pin_7*%
%TO.N,PB12*%
X3920000Y4300000D03*
%TO.P,J2,8,Pin_8*%
%TO.N,PG10*%
X1380000Y4300000D03*
%TO.P,J2,9,Pin_9*%
%TO.N,PB13*%
X3920000Y1760000D03*
%TO.P,J2,10,Pin_10*%
%TO.N,PB14*%
X1380000Y1760000D03*
%TD*%
D11*
%TO.P,J1,1,Pin_1*%
%TO.N,SPI0_MOSI*%
X13400000Y8875000D03*
D12*
%TO.P,J1,2,Pin_2*%
%TO.N,GND*%
X15940000Y8875000D03*
%TO.P,J1,3,Pin_3*%
%TO.N,SPI0_MISO*%
X13400000Y6335000D03*
%TO.P,J1,4,Pin_4*%
%TO.N,BCM25*%
X15940000Y6335000D03*
%TO.P,J1,5,Pin_5*%
%TO.N,SPI0_CLK*%
X13400000Y3795000D03*
%TO.P,J1,6,Pin_6*%
%TO.N,SPI0_CE*%
X15940000Y3795000D03*
%TD*%
D13*
%TO.N,GND*%
X1380000Y11920000D02*
X2555000Y13095000D01*
X2555000Y13095000D02*
X5447000Y13095000D01*
X5447000Y13095000D02*
X5842000Y12700000D01*
%TD*%
%TA.AperFunction,Conductor*%
%TO.N,GND*%
G36*
X16959621Y13187498D02*
G01*
X17006114Y13133842D01*
X17017500Y13081500D01*
X17017500Y10014627D01*
X16997498Y9946506D01*
X16943842Y9900013D01*
X16873568Y9889909D01*
X16813408Y9915745D01*
X16698140Y10006778D01*
X16689552Y10012483D01*
X16503117Y10115401D01*
X16493705Y10119631D01*
X16292959Y10190720D01*
X16282988Y10193354D01*
X16211837Y10206028D01*
X16198540Y10204568D01*
X16194000Y10190011D01*
X16194000Y8747000D01*
X16173998Y8678879D01*
X16120342Y8632386D01*
X16068000Y8621000D01*
X15812000Y8621000D01*
X15743879Y8641002D01*
X15697386Y8694658D01*
X15686000Y8747000D01*
X15686000Y10191898D01*
X15682082Y10205242D01*
X15667806Y10207229D01*
X15629324Y10201340D01*
X15619288Y10198949D01*
X15416868Y10132788D01*
X15407359Y10128791D01*
X15218463Y10030458D01*
X15209738Y10024964D01*
X15039433Y9897095D01*
X15031726Y9890252D01*
X14954478Y9809416D01*
X14892954Y9773986D01*
X14822042Y9777443D01*
X14764255Y9818689D01*
X14745402Y9852237D01*
X14703767Y9963297D01*
X14700615Y9971705D01*
X14613261Y10088261D01*
X14496705Y10175615D01*
X14360316Y10226745D01*
X14298134Y10233500D01*
X12501866Y10233500D01*
X12439684Y10226745D01*
X12303295Y10175615D01*
X12186739Y10088261D01*
X12183777Y10084309D01*
X12123247Y10051256D01*
X12052432Y10056321D01*
X11995596Y10098868D01*
X11972150Y10153833D01*
X11958968Y10233597D01*
X11940412Y10345885D01*
X11939505Y10352447D01*
X11937251Y10372654D01*
X11937251Y10372655D01*
X11936793Y10376759D01*
X11933485Y10390160D01*
X11931503Y10399795D01*
X11930466Y10406071D01*
X11929849Y10409805D01*
X11922762Y10434069D01*
X11921385Y10439184D01*
X11833766Y10794151D01*
X11831946Y10802825D01*
X11823672Y10850555D01*
X11823671Y10850557D01*
X11822373Y10858047D01*
X11796742Y10916618D01*
X11794369Y10922433D01*
X11774387Y10975133D01*
X11774384Y10975138D01*
X11771693Y10982236D01*
X11762734Y10995240D01*
X11737401Y11032008D01*
X11733307Y11038347D01*
X11471959Y11471001D01*
X11464437Y11485501D01*
X11454930Y11507158D01*
X11451877Y11514113D01*
X11425428Y11548583D01*
X11423463Y11551283D01*
X11422177Y11553412D01*
X11398668Y11583465D01*
X11398006Y11584320D01*
X11372647Y11617368D01*
X11370889Y11619126D01*
X11368813Y11621632D01*
X11348953Y11647020D01*
X11348948Y11647025D01*
X11344267Y11653009D01*
X11316261Y11675020D01*
X11305025Y11684990D01*
X10880318Y12109697D01*
X10869538Y12121974D01*
X10850481Y12146751D01*
X10816496Y12173914D01*
X10813991Y12176024D01*
X10812228Y12177787D01*
X10809249Y12180123D01*
X10809242Y12180129D01*
X10782326Y12201233D01*
X10781403Y12201963D01*
X10770654Y12210555D01*
X10748814Y12228011D01*
X10746682Y12229299D01*
X10744065Y12231234D01*
X10712720Y12255812D01*
X10680250Y12270472D01*
X10666958Y12277457D01*
X10260952Y12522709D01*
X10245925Y12533358D01*
X10244815Y12534274D01*
X10227124Y12548866D01*
X10205011Y12559516D01*
X10185754Y12568791D01*
X10178392Y12572776D01*
X10175926Y12574070D01*
X10172683Y12576029D01*
X10144210Y12588846D01*
X10141266Y12590218D01*
X10113579Y12603553D01*
X10109865Y12605342D01*
X10105950Y12606631D01*
X10102122Y12608175D01*
X10102136Y12608209D01*
X10095274Y12610875D01*
X10057377Y12627934D01*
X10029127Y12633136D01*
X10012559Y12637367D01*
X9485804Y12810729D01*
X9479442Y12813014D01*
X9420711Y12835912D01*
X9400141Y12838620D01*
X9364108Y12843364D01*
X9355829Y12844736D01*
X9307282Y12854452D01*
X9307278Y12854452D01*
X9299830Y12855943D01*
X9292241Y12855614D01*
X9292240Y12855614D01*
X9232381Y12853018D01*
X9226922Y12852900D01*
X8730581Y12852900D01*
X8719565Y12853383D01*
X8715158Y12853770D01*
X8707731Y12855337D01*
X8635698Y12852968D01*
X8631556Y12852900D01*
X8603734Y12852900D01*
X8599968Y12852444D01*
X8599963Y12852444D01*
X8598062Y12852214D01*
X8587058Y12851368D01*
X8577651Y12851059D01*
X8550574Y12846584D01*
X8545254Y12845823D01*
X8478200Y12837709D01*
X8471097Y12835025D01*
X8463719Y12833213D01*
X8463651Y12833491D01*
X8451383Y12830193D01*
X7941214Y12745885D01*
X7939354Y12745593D01*
X7905984Y12740611D01*
X7867371Y12734848D01*
X7867368Y12734847D01*
X7859857Y12733726D01*
X7852830Y12730846D01*
X7852828Y12730845D01*
X7821637Y12718059D01*
X7809174Y12713698D01*
X7769517Y12702114D01*
X7692299Y12657381D01*
X7691979Y12657197D01*
X7036767Y12282111D01*
X7024814Y12276088D01*
X6987247Y12259597D01*
X6981224Y12254975D01*
X6981220Y12254973D01*
X6924732Y12211629D01*
X6923337Y12210574D01*
X6860188Y12163522D01*
X6855353Y12157659D01*
X6855352Y12157658D01*
X6831305Y12128497D01*
X6823190Y12119565D01*
X6369131Y11665506D01*
X6364409Y11661021D01*
X6316921Y11618205D01*
X6293346Y11583465D01*
X6285352Y11571685D01*
X6280247Y11564693D01*
X6245548Y11520440D01*
X6242423Y11513518D01*
X6217393Y11458083D01*
X6215159Y11453394D01*
X5958471Y10942174D01*
X5958433Y10942099D01*
X5955674Y10937257D01*
X5952972Y10933990D01*
X5949669Y10927155D01*
X5949665Y10927148D01*
X5917913Y10861432D01*
X5917064Y10859710D01*
X5901866Y10829441D01*
X5900581Y10825863D01*
X5900547Y10825784D01*
X5898189Y10820610D01*
X5896349Y10816802D01*
X5885616Y10784327D01*
X5884600Y10781381D01*
X5859112Y10710439D01*
X5858388Y10703508D01*
X5855611Y10693544D01*
X5690774Y10194808D01*
X5688539Y10188597D01*
X5665448Y10129371D01*
X5664456Y10121836D01*
X5658065Y10073290D01*
X5656662Y10064855D01*
X5653923Y10051256D01*
X5645486Y10009373D01*
X5647072Y9971705D01*
X5648348Y9941398D01*
X5648460Y9936098D01*
X5648460Y9238677D01*
X5647985Y9227748D01*
X5647543Y9222671D01*
X5645980Y9215239D01*
X5646235Y9207649D01*
X5648389Y9143525D01*
X5648460Y9139295D01*
X5648460Y9111734D01*
X5648915Y9107976D01*
X5648915Y9107972D01*
X5649181Y9105779D01*
X5650023Y9094871D01*
X5651660Y9046149D01*
X5653716Y9038844D01*
X5653718Y9038834D01*
X5657334Y9025989D01*
X5661135Y9006989D01*
X5663651Y8986200D01*
X5666334Y8979099D01*
X5666335Y8979096D01*
X5680882Y8940600D01*
X5684300Y8930212D01*
X5686930Y8920869D01*
X5697642Y8895904D01*
X5699690Y8890826D01*
X5723454Y8827938D01*
X5727756Y8821678D01*
X5731276Y8814945D01*
X5731052Y8814828D01*
X5737282Y8803523D01*
X5987721Y8219874D01*
X5992261Y8207562D01*
X6004690Y8167544D01*
X6008606Y8161041D01*
X6008607Y8161038D01*
X6044879Y8100799D01*
X6045882Y8099103D01*
X6085009Y8031668D01*
X6117104Y7998344D01*
X6124878Y7989476D01*
X6451935Y7579094D01*
X6464599Y7559814D01*
X6468797Y7551935D01*
X6473865Y7546277D01*
X6473865Y7546276D01*
X6509802Y7506149D01*
X6514468Y7500628D01*
X6525763Y7486456D01*
X6528462Y7483799D01*
X6528465Y7483796D01*
X6537100Y7475297D01*
X6542553Y7469581D01*
X6555627Y7454983D01*
X6558753Y7452299D01*
X6568918Y7443571D01*
X6575224Y7437772D01*
X6578588Y7434461D01*
X6606341Y7407143D01*
X6615881Y7397752D01*
X6627309Y7390954D01*
X6644974Y7378261D01*
X6865858Y7188589D01*
X7174438Y6923612D01*
X7213089Y6864058D01*
X7213407Y6793062D01*
X7175291Y6733165D01*
X7154952Y6718669D01*
X6925947Y6587571D01*
X6913994Y6581548D01*
X6876427Y6565057D01*
X6870404Y6560435D01*
X6870400Y6560433D01*
X6813912Y6517089D01*
X6812517Y6516034D01*
X6749368Y6468982D01*
X6744533Y6463119D01*
X6744532Y6463118D01*
X6720485Y6433957D01*
X6712370Y6425025D01*
X6258311Y5970966D01*
X6253589Y5966481D01*
X6206101Y5923665D01*
X6182526Y5888925D01*
X6174532Y5877145D01*
X6169427Y5870153D01*
X6134728Y5825900D01*
X6131603Y5818978D01*
X6106573Y5763543D01*
X6104339Y5758854D01*
X6086521Y5723368D01*
X5847826Y5247983D01*
X5847613Y5247559D01*
X5844854Y5242717D01*
X5842152Y5239450D01*
X5838849Y5232615D01*
X5838845Y5232608D01*
X5807093Y5166892D01*
X5806244Y5165170D01*
X5791046Y5134901D01*
X5789761Y5131323D01*
X5789727Y5131244D01*
X5787369Y5126070D01*
X5785529Y5122262D01*
X5774807Y5089820D01*
X5773780Y5086841D01*
X5748292Y5015899D01*
X5747568Y5008968D01*
X5744791Y4999004D01*
X5579954Y4500268D01*
X5577719Y4494057D01*
X5554628Y4434831D01*
X5553636Y4427296D01*
X5547245Y4378750D01*
X5545842Y4370315D01*
X5542199Y4352228D01*
X5534666Y4314833D01*
X5536735Y4265695D01*
X5537528Y4246858D01*
X5537640Y4241558D01*
X5537640Y3544137D01*
X5537165Y3533208D01*
X5536723Y3528131D01*
X5535160Y3520699D01*
X5535415Y3513109D01*
X5537569Y3448985D01*
X5537640Y3444755D01*
X5537640Y3417194D01*
X5538095Y3413436D01*
X5538095Y3413432D01*
X5538361Y3411239D01*
X5539203Y3400331D01*
X5540840Y3351609D01*
X5542896Y3344304D01*
X5542898Y3344294D01*
X5546514Y3331449D01*
X5550315Y3312449D01*
X5552831Y3291660D01*
X5555514Y3284559D01*
X5555515Y3284556D01*
X5570062Y3246060D01*
X5573480Y3235672D01*
X5576110Y3226329D01*
X5586822Y3201364D01*
X5588870Y3196286D01*
X5612634Y3133398D01*
X5616936Y3127138D01*
X5620456Y3120405D01*
X5620232Y3120288D01*
X5626462Y3108983D01*
X5876901Y2525334D01*
X5881441Y2513022D01*
X5893870Y2473004D01*
X5897786Y2466501D01*
X5897787Y2466498D01*
X5917414Y2433903D01*
X5933488Y2407208D01*
X5934059Y2406259D01*
X5935065Y2404556D01*
X5974189Y2337128D01*
X6006284Y2303804D01*
X6014058Y2294936D01*
X6341115Y1884554D01*
X6353779Y1865274D01*
X6357977Y1857395D01*
X6363045Y1851737D01*
X6363045Y1851736D01*
X6398982Y1811609D01*
X6403648Y1806088D01*
X6414943Y1791916D01*
X6417642Y1789259D01*
X6417645Y1789256D01*
X6426280Y1780757D01*
X6431733Y1775041D01*
X6444807Y1760443D01*
X6447933Y1757759D01*
X6458098Y1749031D01*
X6464404Y1743232D01*
X6505061Y1703212D01*
X6516489Y1696414D01*
X6534154Y1683721D01*
X6786565Y1466977D01*
X7134904Y1167859D01*
X7147923Y1154917D01*
X7164039Y1136373D01*
X7201390Y1110018D01*
X7207272Y1105435D01*
X7210107Y1103283D01*
X7212990Y1100807D01*
X7216150Y1098695D01*
X7216153Y1098693D01*
X7239100Y1083359D01*
X7241671Y1081594D01*
X7302274Y1038832D01*
X7308997Y1036196D01*
X7309169Y1036109D01*
X7312005Y1034627D01*
X7312115Y1034568D01*
X7318126Y1030551D01*
X7387803Y1005256D01*
X7390745Y1004146D01*
X7423445Y991326D01*
X7427442Y990336D01*
X7431381Y989082D01*
X7431366Y989036D01*
X7438289Y986928D01*
X7454212Y981148D01*
X7477155Y972819D01*
X7500971Y970252D01*
X7505910Y969719D01*
X7522689Y966751D01*
X8216276Y795007D01*
X8231755Y790096D01*
X8261169Y778628D01*
X8268702Y777636D01*
X8268703Y777636D01*
X8304244Y772957D01*
X8307222Y772487D01*
X8309450Y771935D01*
X8313216Y771472D01*
X8313222Y771471D01*
X8341038Y768052D01*
X8347536Y767254D01*
X8348519Y767129D01*
X8377675Y763290D01*
X8386119Y762178D01*
X8386120Y762178D01*
X8390206Y761640D01*
X8392503Y761640D01*
X8395453Y761362D01*
X8410124Y759559D01*
X8432138Y750046D01*
X8440462Y755396D01*
X8461058Y759616D01*
X8470629Y760756D01*
X8485531Y761640D01*
X8962609Y761640D01*
X8984708Y759687D01*
X8991107Y758547D01*
X9004371Y751944D01*
X9009742Y755396D01*
X9037114Y760238D01*
X9054506Y761362D01*
X9054753Y761378D01*
X9062879Y761640D01*
X9078146Y761640D01*
X9096816Y763900D01*
X9103826Y764550D01*
X9122155Y765734D01*
X9122158Y765734D01*
X9126269Y766000D01*
X9131921Y767119D01*
X9140645Y768846D01*
X9149980Y770333D01*
X9196137Y775918D01*
X9196139Y775919D01*
X9203680Y776831D01*
X9218870Y782571D01*
X9238930Y788303D01*
X9630615Y865845D01*
X9643177Y867680D01*
X9686232Y871758D01*
X9693397Y874255D01*
X9693403Y874256D01*
X9758534Y896951D01*
X9760853Y897734D01*
X9826436Y919167D01*
X9826435Y919167D01*
X9833658Y921527D01*
X9840108Y925542D01*
X9840111Y925543D01*
X9874069Y946679D01*
X9884014Y952261D01*
X10195542Y1109017D01*
X10212332Y1115997D01*
X10236176Y1123945D01*
X10274363Y1148024D01*
X10280311Y1151386D01*
X10280298Y1151409D01*
X10283590Y1153322D01*
X10286971Y1155023D01*
X10290121Y1157116D01*
X10290125Y1157119D01*
X10313581Y1172710D01*
X10316123Y1174356D01*
X10346268Y1193364D01*
X10349450Y1196009D01*
X10352777Y1198425D01*
X10352827Y1198357D01*
X10358317Y1202445D01*
X10385955Y1220815D01*
X10392280Y1225019D01*
X10412237Y1246730D01*
X10424458Y1258357D01*
X10930316Y1678840D01*
X10947583Y1690903D01*
X10954509Y1694925D01*
X10954513Y1694928D01*
X10961077Y1698740D01*
X11000470Y1736710D01*
X11007365Y1742884D01*
X11016306Y1750316D01*
X11018908Y1753071D01*
X11018921Y1753083D01*
X11031773Y1766691D01*
X11035912Y1770873D01*
X11054783Y1789063D01*
X11057351Y1792286D01*
X11057366Y1792302D01*
X11061643Y1797669D01*
X11068576Y1805656D01*
X11097914Y1836717D01*
X11097916Y1836720D01*
X11103133Y1842243D01*
X11106884Y1848855D01*
X11112991Y1859619D01*
X11124047Y1875973D01*
X11460924Y2298679D01*
X11467689Y2306488D01*
X11502739Y2343744D01*
X11536530Y2403586D01*
X11538984Y2407743D01*
X11571091Y2459823D01*
X11571092Y2459826D01*
X11575078Y2466291D01*
X11582011Y2487815D01*
X11592109Y2519170D01*
X11595172Y2527632D01*
X11761094Y2939283D01*
X11769554Y2956401D01*
X11776955Y2968894D01*
X11776956Y2968896D01*
X11780828Y2975432D01*
X11794788Y3021541D01*
X11798521Y3032140D01*
X11799063Y3033485D01*
X11800479Y3036998D01*
X11807998Y3064957D01*
X11809081Y3068748D01*
X11809362Y3069675D01*
X11818543Y3099999D01*
X11819211Y3104057D01*
X11819214Y3104071D01*
X11819292Y3104547D01*
X11821941Y3116799D01*
X11831346Y3151772D01*
X11831346Y3151773D01*
X11833319Y3159109D01*
X11833897Y3185582D01*
X11835539Y3203286D01*
X11836724Y3210487D01*
X11860460Y3354730D01*
X11891258Y3418698D01*
X11951751Y3455862D01*
X12022732Y3454421D01*
X12081667Y3414833D01*
X12101531Y3381674D01*
X12174738Y3201386D01*
X12183266Y3180384D01*
X12222231Y3116799D01*
X12297291Y2994312D01*
X12299987Y2989912D01*
X12303367Y2986010D01*
X12312530Y2975432D01*
X12446250Y2821062D01*
X12618126Y2678368D01*
X12811000Y2565662D01*
X13019692Y2485970D01*
X13024760Y2484939D01*
X13024763Y2484938D01*
X13115399Y2466498D01*
X13238597Y2441433D01*
X13243772Y2441243D01*
X13243774Y2441243D01*
X13456673Y2433436D01*
X13456677Y2433436D01*
X13461837Y2433247D01*
X13466957Y2433903D01*
X13466959Y2433903D01*
X13678288Y2460975D01*
X13678289Y2460975D01*
X13683416Y2461632D01*
X13745493Y2480256D01*
X13892429Y2524339D01*
X13892434Y2524341D01*
X13897384Y2525826D01*
X14097994Y2624104D01*
X14279860Y2753827D01*
X14301737Y2775627D01*
X14418717Y2892200D01*
X14438096Y2911511D01*
X14464435Y2948165D01*
X14568453Y3092923D01*
X14569776Y3091972D01*
X14616645Y3135143D01*
X14686580Y3147375D01*
X14752026Y3119856D01*
X14779875Y3088006D01*
X14791108Y3069675D01*
X14839987Y2989912D01*
X14843367Y2986010D01*
X14852530Y2975432D01*
X14986250Y2821062D01*
X15158126Y2678368D01*
X15351000Y2565662D01*
X15559692Y2485970D01*
X15564760Y2484939D01*
X15564763Y2484938D01*
X15655399Y2466498D01*
X15778597Y2441433D01*
X15783772Y2441243D01*
X15783774Y2441243D01*
X15996673Y2433436D01*
X15996677Y2433436D01*
X16001837Y2433247D01*
X16006957Y2433903D01*
X16006959Y2433903D01*
X16218288Y2460975D01*
X16218289Y2460975D01*
X16223416Y2461632D01*
X16285493Y2480256D01*
X16432429Y2524339D01*
X16432434Y2524341D01*
X16437384Y2525826D01*
X16637994Y2624104D01*
X16818332Y2752737D01*
X16885405Y2776011D01*
X16954414Y2759327D01*
X17003448Y2707983D01*
X17017500Y2650158D01*
X17017500Y634500D01*
X16997498Y566379D01*
X16943842Y519886D01*
X16891500Y508500D01*
X9045240Y508500D01*
X9007521Y519575D01*
X8982752Y509252D01*
X8969008Y508500D01*
X8475960Y508500D01*
X8436073Y520212D01*
X8415242Y510177D01*
X8394755Y508500D01*
X4893741Y508500D01*
X4825620Y528502D01*
X4779127Y582158D01*
X4769023Y652432D01*
X4798517Y717012D01*
X4804801Y723751D01*
X4840735Y759559D01*
X4958096Y876511D01*
X5010685Y949696D01*
X5085435Y1053723D01*
X5088453Y1057923D01*
X5109320Y1100143D01*
X5185136Y1253547D01*
X5185137Y1253549D01*
X5187430Y1258189D01*
X5252370Y1471931D01*
X5281529Y1693410D01*
X5281674Y1699331D01*
X5283074Y1756635D01*
X5283074Y1756639D01*
X5283156Y1760000D01*
X5264852Y1982639D01*
X5210431Y2199298D01*
X5121354Y2404160D01*
X5046951Y2519170D01*
X5002822Y2587383D01*
X5002820Y2587386D01*
X5000014Y2591723D01*
X4849670Y2756949D01*
X4845619Y2760148D01*
X4845615Y2760152D01*
X4678414Y2892200D01*
X4678410Y2892202D01*
X4674359Y2895402D01*
X4633053Y2918204D01*
X4583084Y2968636D01*
X4568312Y3038079D01*
X4593428Y3104484D01*
X4620780Y3131091D01*
X4689886Y3180384D01*
X4799860Y3258827D01*
X4958096Y3416511D01*
X4961310Y3420983D01*
X5085435Y3593723D01*
X5088453Y3597923D01*
X5105070Y3631544D01*
X5185136Y3793547D01*
X5185137Y3793549D01*
X5187430Y3798189D01*
X5227731Y3930835D01*
X5250865Y4006977D01*
X5250865Y4006979D01*
X5252370Y4011931D01*
X5281529Y4233410D01*
X5281611Y4236760D01*
X5283074Y4296635D01*
X5283074Y4296639D01*
X5283156Y4300000D01*
X5264852Y4522639D01*
X5210431Y4739298D01*
X5121354Y4944160D01*
X5029081Y5086793D01*
X5002822Y5127383D01*
X5002820Y5127386D01*
X5000014Y5131723D01*
X4849670Y5296949D01*
X4845619Y5300148D01*
X4845615Y5300152D01*
X4678414Y5432200D01*
X4678410Y5432202D01*
X4674359Y5435402D01*
X4633053Y5458204D01*
X4583084Y5508636D01*
X4568312Y5578079D01*
X4593428Y5644484D01*
X4620780Y5671091D01*
X4689886Y5720384D01*
X4799860Y5798827D01*
X4857319Y5856085D01*
X4930239Y5928751D01*
X4958096Y5956511D01*
X4962878Y5963165D01*
X5085435Y6133723D01*
X5088453Y6137923D01*
X5109320Y6180143D01*
X5185136Y6333547D01*
X5185137Y6333549D01*
X5187430Y6338189D01*
X5246466Y6532498D01*
X5250865Y6546977D01*
X5250865Y6546979D01*
X5252370Y6551931D01*
X5281529Y6773410D01*
X5282433Y6810390D01*
X5283074Y6836635D01*
X5283074Y6836639D01*
X5283156Y6840000D01*
X5264852Y7062639D01*
X5210431Y7279298D01*
X5121354Y7484160D01*
X5060412Y7578362D01*
X5002822Y7667383D01*
X5002820Y7667386D01*
X5000014Y7671723D01*
X4849670Y7836949D01*
X4845619Y7840148D01*
X4845615Y7840152D01*
X4678414Y7972200D01*
X4678410Y7972202D01*
X4674359Y7975402D01*
X4633053Y7998204D01*
X4583084Y8048636D01*
X4568312Y8118079D01*
X4593428Y8184484D01*
X4620780Y8211091D01*
X4685476Y8257238D01*
X4799860Y8338827D01*
X4816894Y8355801D01*
X4920110Y8458658D01*
X4958096Y8496511D01*
X4985982Y8535318D01*
X5085435Y8673723D01*
X5088453Y8677923D01*
X5109320Y8720143D01*
X5185136Y8873547D01*
X5185137Y8873549D01*
X5187430Y8878189D01*
X5252370Y9091931D01*
X5281529Y9313410D01*
X5283156Y9380000D01*
X5264852Y9602639D01*
X5210431Y9819298D01*
X5121354Y10024160D01*
X5026858Y10170229D01*
X5002822Y10207383D01*
X5002820Y10207386D01*
X5000014Y10211723D01*
X4985569Y10227598D01*
X4852798Y10373512D01*
X4821746Y10437358D01*
X4830141Y10507857D01*
X4875317Y10562625D01*
X4901761Y10576294D01*
X5008297Y10616233D01*
X5016705Y10619385D01*
X5133261Y10706739D01*
X5220615Y10823295D01*
X5271745Y10959684D01*
X5278500Y11021866D01*
X5278500Y12818134D01*
X5271745Y12880316D01*
X5220615Y13016705D01*
X5216577Y13022092D01*
X5201649Y13090349D01*
X5226386Y13156897D01*
X5283174Y13199507D01*
X5327338Y13207500D01*
X16891500Y13207500D01*
X16959621Y13187498D01*
G37*
%TD.AperFunction*%
%TA.AperFunction,Conductor*%
G36*
X2580783Y13187498D02*
G01*
X2627276Y13133842D01*
X2637380Y13063568D01*
X2623650Y13022396D01*
X2619385Y13016705D01*
X2616236Y13008304D01*
X2616235Y13008302D01*
X2574722Y12897567D01*
X2532081Y12840802D01*
X2465519Y12816102D01*
X2396170Y12831309D01*
X2363546Y12856996D01*
X2312799Y12912766D01*
X2305273Y12919784D01*
X2225711Y12982618D01*
X2184648Y13040534D01*
X2181416Y13111457D01*
X2217041Y13172869D01*
X2280212Y13205272D01*
X2303803Y13207500D01*
X2512662Y13207500D01*
X2580783Y13187498D01*
G37*
%TD.AperFunction*%
%TD*%
M02*
