M48
; DRILL file {KiCad (6.0.6)} date Fri Aug 19 10:36:44 2022
; FORMAT={-:-/ absolute / metric / decimal}
; #@! TF.CreationDate,2022-08-19T10:36:44-07:00
; #@! TF.GenerationSoftware,Kicad,Pcbnew,(6.0.6)
; #@! TF.FileFunction,Plated,1,2,PTH
FMAT,2
METRIC
; #@! TA.AperFunction,Plated,PTH,ComponentDrill
T1C1.000
%
G90
G05
T1
X9.377Y-9.798
X9.377Y-12.338
X9.377Y-14.878
X9.377Y-17.418
X9.377Y-19.958
X9.377Y-25.514
X9.377Y-28.054
X9.377Y-30.594
X9.377Y-33.134
X9.377Y-35.674
X9.377Y-41.23
X9.377Y-43.77
X9.377Y-46.31
X9.377Y-48.85
X9.377Y-51.39
X9.377Y-56.946
X9.377Y-59.486
X9.377Y-62.026
X9.377Y-64.566
X9.377Y-67.106
X9.377Y-72.662
X9.377Y-75.202
X9.377Y-77.742
X9.377Y-80.282
X9.377Y-82.822
X11.917Y-9.798
X11.917Y-12.338
X11.917Y-14.878
X11.917Y-17.418
X11.917Y-19.958
X11.917Y-25.514
X11.917Y-28.054
X11.917Y-30.594
X11.917Y-33.134
X11.917Y-35.674
X11.917Y-41.23
X11.917Y-43.77
X11.917Y-46.31
X11.917Y-48.85
X11.917Y-51.39
X11.917Y-56.946
X11.917Y-59.486
X11.917Y-62.026
X11.917Y-64.566
X11.917Y-67.106
X11.917Y-72.662
X11.917Y-75.202
X11.917Y-77.742
X11.917Y-80.282
X11.917Y-82.822
X21.397Y-12.843
X21.397Y-15.383
X21.397Y-17.923
X21.397Y-28.559
X21.397Y-31.099
X21.397Y-33.639
X21.397Y-44.275
X21.397Y-46.815
X21.397Y-49.355
X21.397Y-59.991
X21.397Y-62.531
X21.397Y-65.071
X21.397Y-75.707
X21.397Y-78.247
X21.397Y-80.787
X23.937Y-12.843
X23.937Y-15.383
X23.937Y-17.923
X23.937Y-28.559
X23.937Y-31.099
X23.937Y-33.639
X23.937Y-44.275
X23.937Y-46.815
X23.937Y-49.355
X23.937Y-59.991
X23.937Y-62.531
X23.937Y-65.071
X23.937Y-75.707
X23.937Y-78.247
X23.937Y-80.787
X28.903Y-9.798
X28.903Y-12.338
X28.903Y-14.878
X28.903Y-17.418
X28.903Y-19.958
X28.903Y-25.514
X28.903Y-28.054
X28.903Y-30.594
X28.903Y-33.134
X28.903Y-35.674
X28.903Y-41.23
X28.903Y-43.77
X28.903Y-46.31
X28.903Y-48.85
X28.903Y-51.39
X28.903Y-56.946
X28.903Y-59.486
X28.903Y-62.026
X28.903Y-64.566
X28.903Y-67.106
X28.903Y-72.662
X28.903Y-75.202
X28.903Y-77.742
X28.903Y-80.282
X28.903Y-82.822
X31.443Y-9.798
X31.443Y-12.338
X31.443Y-14.878
X31.443Y-17.418
X31.443Y-19.958
X31.443Y-25.514
X31.443Y-28.054
X31.443Y-30.594
X31.443Y-33.134
X31.443Y-35.674
X31.443Y-41.23
X31.443Y-43.77
X31.443Y-46.31
X31.443Y-48.85
X31.443Y-51.39
X31.443Y-56.946
X31.443Y-59.486
X31.443Y-62.026
X31.443Y-64.566
X31.443Y-67.106
X31.443Y-72.662
X31.443Y-75.202
X31.443Y-77.742
X31.443Y-80.282
X31.443Y-82.822
X40.923Y-12.843
X40.923Y-15.383
X40.923Y-17.923
X40.923Y-28.559
X40.923Y-31.099
X40.923Y-33.639
X40.923Y-44.275
X40.923Y-46.815
X40.923Y-49.355
X40.923Y-59.991
X40.923Y-62.531
X40.923Y-65.071
X40.923Y-75.707
X40.923Y-78.247
X40.923Y-80.787
X43.463Y-12.843
X43.463Y-15.383
X43.463Y-17.923
X43.463Y-28.559
X43.463Y-31.099
X43.463Y-33.639
X43.463Y-44.275
X43.463Y-46.815
X43.463Y-49.355
X43.463Y-59.991
X43.463Y-62.531
X43.463Y-65.071
X43.463Y-75.707
X43.463Y-78.247
X43.463Y-80.787
X48.429Y-9.798
X48.429Y-12.338
X48.429Y-14.878
X48.429Y-17.418
X48.429Y-19.958
X48.429Y-25.514
X48.429Y-28.054
X48.429Y-30.594
X48.429Y-33.134
X48.429Y-35.674
X48.429Y-41.23
X48.429Y-43.77
X48.429Y-46.31
X48.429Y-48.85
X48.429Y-51.39
X48.429Y-56.946
X48.429Y-59.486
X48.429Y-62.026
X48.429Y-64.566
X48.429Y-67.106
X48.429Y-72.662
X48.429Y-75.202
X48.429Y-77.742
X48.429Y-80.282
X48.429Y-82.822
X50.969Y-9.798
X50.969Y-12.338
X50.969Y-14.878
X50.969Y-17.418
X50.969Y-19.958
X50.969Y-25.514
X50.969Y-28.054
X50.969Y-30.594
X50.969Y-33.134
X50.969Y-35.674
X50.969Y-41.23
X50.969Y-43.77
X50.969Y-46.31
X50.969Y-48.85
X50.969Y-51.39
X50.969Y-56.946
X50.969Y-59.486
X50.969Y-62.026
X50.969Y-64.566
X50.969Y-67.106
X50.969Y-72.662
X50.969Y-75.202
X50.969Y-77.742
X50.969Y-80.282
X50.969Y-82.822
X60.449Y-12.843
X60.449Y-15.383
X60.449Y-17.923
X60.449Y-28.559
X60.449Y-31.099
X60.449Y-33.639
X60.449Y-44.275
X60.449Y-46.815
X60.449Y-49.355
X60.449Y-59.991
X60.449Y-62.531
X60.449Y-65.071
X60.449Y-75.707
X60.449Y-78.247
X60.449Y-80.787
X62.989Y-12.843
X62.989Y-15.383
X62.989Y-17.923
X62.989Y-28.559
X62.989Y-31.099
X62.989Y-33.639
X62.989Y-44.275
X62.989Y-46.815
X62.989Y-49.355
X62.989Y-59.991
X62.989Y-62.531
X62.989Y-65.071
X62.989Y-75.707
X62.989Y-78.247
X62.989Y-80.787
X67.955Y-9.798
X67.955Y-12.338
X67.955Y-14.878
X67.955Y-17.418
X67.955Y-19.958
X67.955Y-25.514
X67.955Y-28.054
X67.955Y-30.594
X67.955Y-33.134
X67.955Y-35.674
X67.955Y-41.23
X67.955Y-43.77
X67.955Y-46.31
X67.955Y-48.85
X67.955Y-51.39
X67.955Y-56.946
X67.955Y-59.486
X67.955Y-62.026
X67.955Y-64.566
X67.955Y-67.106
X67.955Y-72.662
X67.955Y-75.202
X67.955Y-77.742
X67.955Y-80.282
X67.955Y-82.822
X70.495Y-9.798
X70.495Y-12.338
X70.495Y-14.878
X70.495Y-17.418
X70.495Y-19.958
X70.495Y-25.514
X70.495Y-28.054
X70.495Y-30.594
X70.495Y-33.134
X70.495Y-35.674
X70.495Y-41.23
X70.495Y-43.77
X70.495Y-46.31
X70.495Y-48.85
X70.495Y-51.39
X70.495Y-56.946
X70.495Y-59.486
X70.495Y-62.026
X70.495Y-64.566
X70.495Y-67.106
X70.495Y-72.662
X70.495Y-75.202
X70.495Y-77.742
X70.495Y-80.282
X70.495Y-82.822
X79.975Y-12.843
X79.975Y-15.383
X79.975Y-17.923
X79.975Y-28.559
X79.975Y-31.099
X79.975Y-33.639
X79.975Y-44.275
X79.975Y-46.815
X79.975Y-49.355
X79.975Y-59.991
X79.975Y-62.531
X79.975Y-65.071
X79.975Y-75.707
X79.975Y-78.247
X79.975Y-80.787
X82.515Y-12.843
X82.515Y-15.383
X82.515Y-17.923
X82.515Y-28.559
X82.515Y-31.099
X82.515Y-33.639
X82.515Y-44.275
X82.515Y-46.815
X82.515Y-49.355
X82.515Y-59.991
X82.515Y-62.531
X82.515Y-65.071
X82.515Y-75.707
X82.515Y-78.247
X82.515Y-80.787
T0
M30
