%TF.GenerationSoftware,KiCad,Pcbnew,(6.0.6)*%
%TF.CreationDate,2022-08-19T09:49:53-07:00*%
%TF.ProjectId,rrf_rpi_skr_adapter,7272665f-7270-4695-9f73-6b725f616461,rev?*%
%TF.SameCoordinates,PX8404630PY621abf0*%
%TF.FileFunction,Copper,L1,Top*%
%TF.FilePolarity,Positive*%
%FSLAX46Y46*%
G04 Gerber Fmt 4.6, Leading zero omitted, Abs format (unit mm)*
G04 Created by KiCad (PCBNEW (6.0.6)) date 2022-08-19 09:49:53*
%MOMM*%
%LPD*%
G01*
G04 APERTURE LIST*
G04 Aperture macros list*
%AMRoundRect*
0 Rectangle with rounded corners*
0 $1 Rounding radius*
0 $2 $3 $4 $5 $6 $7 $8 $9 X,Y pos of 4 corners*
0 Add a 4 corners polygon primitive as box body*
4,1,4,$2,$3,$4,$5,$6,$7,$8,$9,$2,$3,0*
0 Add four circle primitives for the rounded corners*
1,1,$1+$1,$2,$3*
1,1,$1+$1,$4,$5*
1,1,$1+$1,$6,$7*
1,1,$1+$1,$8,$9*
0 Add four rect primitives between the rounded corners*
20,1,$1+$1,$2,$3,$4,$5,0*
20,1,$1+$1,$4,$5,$6,$7,0*
20,1,$1+$1,$6,$7,$8,$9,0*
20,1,$1+$1,$8,$9,$2,$3,0*%
G04 Aperture macros list end*
%TA.AperFunction,SMDPad,CuDef*%
%ADD10RoundRect,0.200000X0.200000X0.275000X-0.200000X0.275000X-0.200000X-0.275000X0.200000X-0.275000X0*%
%TD*%
%TA.AperFunction,ComponentPad*%
%ADD11R,1.700000X1.700000*%
%TD*%
%TA.AperFunction,ComponentPad*%
%ADD12O,1.700000X1.700000*%
%TD*%
%TA.AperFunction,Conductor*%
%ADD13C,0.250000*%
%TD*%
G04 APERTURE END LIST*
D10*
%TO.P,R5,1*%
%TO.N,BCM25*%
X8890000Y11938000D03*
%TO.P,R5,2*%
%TO.N,PF12*%
X7240000Y11938000D03*
%TD*%
D11*
%TO.P,J2,1,Pin_1*%
%TO.N,PF13*%
X3920000Y11920000D03*
D12*
%TO.P,J2,2,Pin_2*%
%TO.N,GND*%
X1380000Y11920000D03*
%TO.P,J2,3,Pin_3*%
%TO.N,RST*%
X3920000Y9380000D03*
%TO.P,J2,4,Pin_4*%
%TO.N,PF12*%
X1380000Y9380000D03*
%TO.P,J2,5,Pin_5*%
%TO.N,PB15*%
X3920000Y6840000D03*
%TO.P,J2,6,Pin_6*%
%TO.N,PF11*%
X1380000Y6840000D03*
%TO.P,J2,7,Pin_7*%
%TO.N,PB12*%
X3920000Y4300000D03*
%TO.P,J2,8,Pin_8*%
%TO.N,PG10*%
X1380000Y4300000D03*
%TO.P,J2,9,Pin_9*%
%TO.N,PB13*%
X3920000Y1760000D03*
%TO.P,J2,10,Pin_10*%
%TO.N,PB14*%
X1380000Y1760000D03*
%TD*%
D10*
%TO.P,R3,1*%
%TO.N,SPI0_CLK*%
X8953000Y4572000D03*
%TO.P,R3,2*%
%TO.N,PB13*%
X7303000Y4572000D03*
%TD*%
%TO.P,R2,1*%
%TO.N,SPI0_MISO*%
X8953000Y2032000D03*
%TO.P,R2,2*%
%TO.N,PB14*%
X7303000Y2032000D03*
%TD*%
D11*
%TO.P,J1,1,Pin_1*%
%TO.N,SPI0_MOSI*%
X13400000Y8875000D03*
D12*
%TO.P,J1,2,Pin_2*%
%TO.N,GND*%
X15940000Y8875000D03*
%TO.P,J1,3,Pin_3*%
%TO.N,SPI0_MISO*%
X13400000Y6335000D03*
%TO.P,J1,4,Pin_4*%
%TO.N,BCM25*%
X15940000Y6335000D03*
%TO.P,J1,5,Pin_5*%
%TO.N,SPI0_CLK*%
X13400000Y3795000D03*
%TO.P,J1,6,Pin_6*%
%TO.N,SPI0_CE*%
X15940000Y3795000D03*
%TD*%
D10*
%TO.P,R1,1*%
%TO.N,SPI0_MOSI*%
X8890000Y9398000D03*
%TO.P,R1,2*%
%TO.N,PB15*%
X7240000Y9398000D03*
%TD*%
%TO.P,R4,1*%
%TO.N,SPI0_CE*%
X8890000Y6858000D03*
%TO.P,R4,2*%
%TO.N,PB12*%
X7240000Y6858000D03*
%TD*%
D13*
%TO.N,SPI0_MOSI*%
X9730000Y8875000D02*
X13400000Y8875000D01*
X9080000Y9525000D02*
X9730000Y8875000D01*
%TO.N,SPI0_MISO*%
X14732000Y5003000D02*
X13400000Y6335000D01*
X14732000Y3465299D02*
X14732000Y5003000D01*
X13171701Y1905000D02*
X14732000Y3465299D01*
X9080000Y1905000D02*
X13171701Y1905000D01*
%TO.N,BCM25*%
X14732000Y9893000D02*
X14732000Y7543000D01*
X12560000Y12065000D02*
X14732000Y9893000D01*
X9080000Y12065000D02*
X12560000Y12065000D01*
X14732000Y7543000D02*
X15940000Y6335000D01*
%TO.N,SPI0_CLK*%
X9730000Y3795000D02*
X13400000Y3795000D01*
X9080000Y4445000D02*
X9730000Y3795000D01*
%TO.N,SPI0_CE*%
X14732000Y6907310D02*
X14732000Y5638690D01*
X14129310Y7510000D02*
X14732000Y6907310D01*
X9080000Y6985000D02*
X9605000Y7510000D01*
X14732000Y5638690D02*
X15940000Y4430690D01*
X15940000Y4430690D02*
X15940000Y3795000D01*
X9605000Y7510000D02*
X14129310Y7510000D01*
%TO.N,PF12*%
X1380000Y9380000D02*
X2668000Y10668000D01*
X2668000Y10668000D02*
X6033000Y10668000D01*
X6033000Y10668000D02*
X7430000Y12065000D01*
%TO.N,PB15*%
X6605000Y9525000D02*
X7430000Y9525000D01*
X3920000Y6840000D02*
X6605000Y9525000D01*
%TO.N,PB12*%
X6605000Y6985000D02*
X7430000Y6985000D01*
X3920000Y4300000D02*
X6605000Y6985000D01*
%TO.N,PB13*%
X3920000Y1760000D02*
X6605000Y4445000D01*
X6605000Y4445000D02*
X7430000Y4445000D01*
%TO.N,PB14*%
X2555000Y585000D02*
X4649000Y585000D01*
X5969000Y1905000D02*
X7430000Y1905000D01*
X4649000Y585000D02*
X5969000Y1905000D01*
X1380000Y1760000D02*
X2555000Y585000D01*
%TD*%
%TA.AperFunction,NonConductor*%
G36*
X2580783Y13187498D02*
G01*
X2627276Y13133842D01*
X2637380Y13063568D01*
X2623650Y13022396D01*
X2619385Y13016705D01*
X2599831Y12964544D01*
X2574919Y12898093D01*
X2532277Y12841329D01*
X2465716Y12816629D01*
X2396367Y12831837D01*
X2363743Y12857524D01*
X2313151Y12913125D01*
X2313142Y12913134D01*
X2309670Y12916949D01*
X2305619Y12920148D01*
X2305615Y12920152D01*
X2226519Y12982618D01*
X2185456Y13040535D01*
X2182224Y13111458D01*
X2217850Y13172870D01*
X2281021Y13205272D01*
X2304611Y13207500D01*
X2512662Y13207500D01*
X2580783Y13187498D01*
G37*
%TD.AperFunction*%
%TA.AperFunction,NonConductor*%
G36*
X16959621Y13187498D02*
G01*
X17006114Y13133842D01*
X17017500Y13081500D01*
X17017500Y10015264D01*
X16997498Y9947143D01*
X16943842Y9900650D01*
X16873568Y9890546D01*
X16813410Y9916381D01*
X16694359Y10010402D01*
X16685552Y10015264D01*
X16590038Y10067990D01*
X16498789Y10118362D01*
X16493920Y10120086D01*
X16493916Y10120088D01*
X16293087Y10191205D01*
X16293083Y10191206D01*
X16288212Y10192931D01*
X16283119Y10193838D01*
X16283116Y10193839D01*
X16073373Y10231200D01*
X16073367Y10231201D01*
X16068284Y10232106D01*
X15994452Y10233008D01*
X15850081Y10234772D01*
X15850079Y10234772D01*
X15844911Y10234835D01*
X15624091Y10201045D01*
X15529810Y10170229D01*
X15440297Y10140972D01*
X15369333Y10138821D01*
X15308471Y10175377D01*
X15293061Y10196806D01*
X15291552Y10200617D01*
X15270740Y10229263D01*
X15265564Y10236387D01*
X15259048Y10246307D01*
X15240580Y10277535D01*
X15240578Y10277538D01*
X15236542Y10284362D01*
X15222221Y10298683D01*
X15209380Y10313717D01*
X15208109Y10315467D01*
X15197472Y10330107D01*
X15163395Y10358298D01*
X15154616Y10366288D01*
X13063652Y12457253D01*
X13056112Y12465539D01*
X13052000Y12472018D01*
X13002348Y12518644D01*
X12999507Y12521398D01*
X12979770Y12541135D01*
X12976573Y12543615D01*
X12967551Y12551320D01*
X12941100Y12576159D01*
X12935321Y12581586D01*
X12928375Y12585405D01*
X12928372Y12585407D01*
X12917566Y12591348D01*
X12901047Y12602199D01*
X12900583Y12602559D01*
X12885041Y12614614D01*
X12877772Y12617759D01*
X12877768Y12617762D01*
X12844463Y12632174D01*
X12833813Y12637391D01*
X12795060Y12658695D01*
X12775437Y12663733D01*
X12756734Y12670137D01*
X12745420Y12675033D01*
X12745419Y12675033D01*
X12738145Y12678181D01*
X12730322Y12679420D01*
X12730312Y12679423D01*
X12694476Y12685099D01*
X12682856Y12687505D01*
X12647711Y12696528D01*
X12647710Y12696528D01*
X12640030Y12698500D01*
X12619776Y12698500D01*
X12600065Y12700051D01*
X12587886Y12701980D01*
X12580057Y12703220D01*
X12572165Y12702474D01*
X12536039Y12699059D01*
X12524181Y12698500D01*
X9658710Y12698500D01*
X9590589Y12718502D01*
X9569615Y12735405D01*
X9530381Y12774639D01*
X9383699Y12863472D01*
X9376452Y12865743D01*
X9376450Y12865744D01*
X9306340Y12887715D01*
X9220062Y12914753D01*
X9146635Y12921500D01*
X9143737Y12921500D01*
X8889335Y12921499D01*
X8633366Y12921499D01*
X8630508Y12921236D01*
X8630499Y12921236D01*
X8594996Y12917974D01*
X8559938Y12914753D01*
X8553560Y12912754D01*
X8553559Y12912754D01*
X8403550Y12865744D01*
X8403548Y12865743D01*
X8396301Y12863472D01*
X8249619Y12774639D01*
X8154095Y12679115D01*
X8091783Y12645089D01*
X8020968Y12650154D01*
X7975905Y12679115D01*
X7880381Y12774639D01*
X7733699Y12863472D01*
X7726452Y12865743D01*
X7726450Y12865744D01*
X7656340Y12887715D01*
X7570062Y12914753D01*
X7496635Y12921500D01*
X7493737Y12921500D01*
X7239335Y12921499D01*
X6983366Y12921499D01*
X6980508Y12921236D01*
X6980499Y12921236D01*
X6944996Y12917974D01*
X6909938Y12914753D01*
X6903560Y12912754D01*
X6903559Y12912754D01*
X6753550Y12865744D01*
X6753548Y12865743D01*
X6746301Y12863472D01*
X6599619Y12774639D01*
X6478361Y12653381D01*
X6389528Y12506699D01*
X6387257Y12499452D01*
X6387256Y12499450D01*
X6374032Y12457253D01*
X6338247Y12343062D01*
X6331500Y12269635D01*
X6331500Y12266737D01*
X6331501Y11914596D01*
X6311499Y11846476D01*
X6294596Y11825501D01*
X5807500Y11338405D01*
X5745188Y11304379D01*
X5718405Y11301500D01*
X5404500Y11301500D01*
X5336379Y11321502D01*
X5289886Y11375158D01*
X5278500Y11427500D01*
X5278500Y12818134D01*
X5271745Y12880316D01*
X5220615Y13016705D01*
X5216577Y13022092D01*
X5201649Y13090349D01*
X5226386Y13156897D01*
X5283174Y13199507D01*
X5327338Y13207500D01*
X16891500Y13207500D01*
X16959621Y13187498D01*
G37*
%TD.AperFunction*%
%TA.AperFunction,NonConductor*%
G36*
X12313527Y11411498D02*
G01*
X12334497Y11394599D01*
X13280502Y10448593D01*
X13314526Y10386283D01*
X13309461Y10315467D01*
X13266914Y10258632D01*
X13200394Y10233821D01*
X13191405Y10233500D01*
X12501866Y10233500D01*
X12439684Y10226745D01*
X12303295Y10175615D01*
X12186739Y10088261D01*
X12099385Y9971705D01*
X12048255Y9835316D01*
X12041500Y9773134D01*
X12041500Y9634500D01*
X12021498Y9566379D01*
X11967842Y9519886D01*
X11915500Y9508500D01*
X10044595Y9508500D01*
X9976474Y9528502D01*
X9955500Y9545405D01*
X9833463Y9667442D01*
X9799437Y9729754D01*
X9797086Y9745010D01*
X9794503Y9773134D01*
X9791753Y9803062D01*
X9789754Y9809441D01*
X9742744Y9959450D01*
X9742743Y9959452D01*
X9740472Y9966699D01*
X9651639Y10113381D01*
X9530381Y10234639D01*
X9383699Y10323472D01*
X9376452Y10325743D01*
X9376450Y10325744D01*
X9310164Y10346517D01*
X9220062Y10374753D01*
X9146635Y10381500D01*
X9143737Y10381500D01*
X8889335Y10381499D01*
X8633366Y10381499D01*
X8630508Y10381236D01*
X8630499Y10381236D01*
X8594996Y10377974D01*
X8559938Y10374753D01*
X8553560Y10372754D01*
X8553559Y10372754D01*
X8403550Y10325744D01*
X8403548Y10325743D01*
X8396301Y10323472D01*
X8249619Y10234639D01*
X8154095Y10139115D01*
X8091783Y10105089D01*
X8020968Y10110154D01*
X7975905Y10139115D01*
X7880381Y10234639D01*
X7733699Y10323472D01*
X7726452Y10325743D01*
X7726450Y10325744D01*
X7660164Y10346517D01*
X7570062Y10374753D01*
X7496635Y10381500D01*
X7493737Y10381500D01*
X7239335Y10381499D01*
X6983366Y10381499D01*
X6975668Y10380792D01*
X6954983Y10378892D01*
X6885319Y10392579D01*
X6834113Y10441757D01*
X6817623Y10510812D01*
X6841085Y10577820D01*
X6854363Y10593459D01*
X7178499Y10917595D01*
X7240811Y10951621D01*
X7267593Y10954500D01*
X7481907Y10954501D01*
X7496634Y10954501D01*
X7499492Y10954764D01*
X7499501Y10954764D01*
X7535004Y10958026D01*
X7570062Y10961247D01*
X7576447Y10963248D01*
X7726450Y11010256D01*
X7726452Y11010257D01*
X7733699Y11012528D01*
X7880381Y11101361D01*
X7975905Y11196885D01*
X8038217Y11230911D01*
X8109032Y11225846D01*
X8154095Y11196885D01*
X8249619Y11101361D01*
X8396301Y11012528D01*
X8403548Y11010257D01*
X8403550Y11010256D01*
X8469836Y10989483D01*
X8559938Y10961247D01*
X8633365Y10954500D01*
X8636263Y10954500D01*
X8890665Y10954501D01*
X9146634Y10954501D01*
X9149492Y10954764D01*
X9149501Y10954764D01*
X9185004Y10958026D01*
X9220062Y10961247D01*
X9226447Y10963248D01*
X9376450Y11010256D01*
X9376452Y11010257D01*
X9383699Y11012528D01*
X9530381Y11101361D01*
X9651639Y11222619D01*
X9740472Y11369301D01*
X9743014Y11367762D01*
X9780354Y11411216D01*
X9848912Y11431500D01*
X12245406Y11431500D01*
X12313527Y11411498D01*
G37*
%TD.AperFunction*%
%TA.AperFunction,NonConductor*%
G36*
X5982526Y10014498D02*
G01*
X6029019Y9960842D01*
X6039123Y9890568D01*
X6009629Y9825988D01*
X6003500Y9819405D01*
X5496877Y9312782D01*
X5434565Y9278756D01*
X5363750Y9283821D01*
X5306914Y9326368D01*
X5282206Y9391553D01*
X5264852Y9602639D01*
X5210431Y9819298D01*
X5193491Y9858257D01*
X5184670Y9928704D01*
X5215337Y9992736D01*
X5275753Y10030024D01*
X5309040Y10034500D01*
X5914405Y10034500D01*
X5982526Y10014498D01*
G37*
%TD.AperFunction*%
%TA.AperFunction,NonConductor*%
G36*
X2732026Y8704856D02*
G01*
X2759875Y8673006D01*
X2819987Y8574912D01*
X2966250Y8406062D01*
X3138126Y8263368D01*
X3154204Y8253973D01*
X3211445Y8220524D01*
X3260169Y8168886D01*
X3273240Y8099103D01*
X3246509Y8033331D01*
X3206055Y7999973D01*
X3193607Y7993493D01*
X3189474Y7990390D01*
X3189471Y7990388D01*
X3019100Y7862470D01*
X3014965Y7859365D01*
X3011393Y7855627D01*
X2938680Y7779537D01*
X2860629Y7697862D01*
X2753201Y7540379D01*
X2698293Y7495379D01*
X2627768Y7487208D01*
X2564021Y7518462D01*
X2543324Y7542946D01*
X2462822Y7667383D01*
X2462820Y7667386D01*
X2460014Y7671723D01*
X2309670Y7836949D01*
X2305619Y7840148D01*
X2305615Y7840152D01*
X2138414Y7972200D01*
X2138410Y7972202D01*
X2134359Y7975402D01*
X2093053Y7998204D01*
X2043084Y8048636D01*
X2028312Y8118079D01*
X2053428Y8184484D01*
X2080780Y8211091D01*
X2140898Y8253973D01*
X2259860Y8338827D01*
X2269720Y8348652D01*
X2414435Y8492863D01*
X2418096Y8496511D01*
X2548453Y8677923D01*
X2549776Y8676972D01*
X2596645Y8720143D01*
X2666580Y8732375D01*
X2732026Y8704856D01*
G37*
%TD.AperFunction*%
%TA.AperFunction,NonConductor*%
G36*
X16954414Y7839327D02*
G01*
X17003448Y7787983D01*
X17017500Y7730158D01*
X17017500Y7475264D01*
X16997498Y7407143D01*
X16943842Y7360650D01*
X16873568Y7350546D01*
X16813410Y7376381D01*
X16694359Y7470402D01*
X16653053Y7493204D01*
X16603084Y7543636D01*
X16588312Y7613079D01*
X16613428Y7679484D01*
X16640780Y7706091D01*
X16818332Y7832737D01*
X16885405Y7856011D01*
X16954414Y7839327D01*
G37*
%TD.AperFunction*%
%TA.AperFunction,NonConductor*%
G36*
X8109032Y8685846D02*
G01*
X8154095Y8656885D01*
X8249619Y8561361D01*
X8396301Y8472528D01*
X8403548Y8470257D01*
X8403550Y8470256D01*
X8469836Y8449483D01*
X8559938Y8421247D01*
X8633365Y8414500D01*
X8636263Y8414500D01*
X8890665Y8414501D01*
X9146634Y8414501D01*
X9149492Y8414764D01*
X9149501Y8414764D01*
X9220062Y8421247D01*
X9220222Y8419504D01*
X9282289Y8414033D01*
X9322565Y8388571D01*
X9354679Y8358414D01*
X9361625Y8354595D01*
X9361628Y8354593D01*
X9372434Y8348652D01*
X9388953Y8337801D01*
X9404958Y8325387D01*
X9404050Y8324216D01*
X9446535Y8278712D01*
X9459239Y8208861D01*
X9432162Y8143231D01*
X9369094Y8101157D01*
X9362025Y8099103D01*
X9351407Y8096018D01*
X9344584Y8091983D01*
X9344582Y8091982D01*
X9333972Y8085707D01*
X9316224Y8077012D01*
X9297383Y8069552D01*
X9290967Y8064890D01*
X9290966Y8064890D01*
X9261613Y8043564D01*
X9251693Y8037048D01*
X9220465Y8018580D01*
X9220462Y8018578D01*
X9213638Y8014542D01*
X9199317Y8000221D01*
X9184284Y7987381D01*
X9167893Y7975472D01*
X9162840Y7969364D01*
X9139708Y7941402D01*
X9131718Y7932622D01*
X9077501Y7878405D01*
X9015189Y7844379D01*
X8988406Y7841500D01*
X8654684Y7841499D01*
X8633366Y7841499D01*
X8630508Y7841236D01*
X8630499Y7841236D01*
X8594996Y7837974D01*
X8559938Y7834753D01*
X8553560Y7832754D01*
X8553559Y7832754D01*
X8403550Y7785744D01*
X8403548Y7785743D01*
X8396301Y7783472D01*
X8249619Y7694639D01*
X8154095Y7599115D01*
X8091783Y7565089D01*
X8020968Y7570154D01*
X7975905Y7599115D01*
X7880381Y7694639D01*
X7733699Y7783472D01*
X7726452Y7785743D01*
X7726450Y7785744D01*
X7660164Y7806517D01*
X7570062Y7834753D01*
X7496635Y7841500D01*
X7493737Y7841500D01*
X7239335Y7841499D01*
X6983366Y7841499D01*
X6980508Y7841236D01*
X6980499Y7841236D01*
X6944996Y7837974D01*
X6909938Y7834753D01*
X6903560Y7832754D01*
X6903559Y7832754D01*
X6753550Y7785744D01*
X6753548Y7785743D01*
X6746301Y7783472D01*
X6599619Y7694639D01*
X6549894Y7644914D01*
X6495948Y7613011D01*
X6485651Y7610020D01*
X6466306Y7606014D01*
X6454068Y7604468D01*
X6454066Y7604467D01*
X6446203Y7603474D01*
X6405086Y7587194D01*
X6393885Y7583359D01*
X6351406Y7571018D01*
X6344587Y7566985D01*
X6344582Y7566983D01*
X6333971Y7560707D01*
X6316221Y7552010D01*
X6297383Y7544552D01*
X6290967Y7539891D01*
X6290966Y7539890D01*
X6261625Y7518572D01*
X6251701Y7512053D01*
X6220460Y7493578D01*
X6220455Y7493574D01*
X6213637Y7489542D01*
X6199313Y7475218D01*
X6184281Y7462379D01*
X6167893Y7450472D01*
X6139712Y7416407D01*
X6131722Y7407627D01*
X5496877Y6772782D01*
X5434565Y6738756D01*
X5363750Y6743821D01*
X5306914Y6786368D01*
X5282206Y6851553D01*
X5264852Y7062639D01*
X5236821Y7174235D01*
X5239625Y7245177D01*
X5269930Y7294026D01*
X6490925Y8515021D01*
X6553237Y8549047D01*
X6624052Y8543982D01*
X6645281Y8533707D01*
X6746301Y8472528D01*
X6753548Y8470257D01*
X6753550Y8470256D01*
X6819836Y8449483D01*
X6909938Y8421247D01*
X6983365Y8414500D01*
X6986263Y8414500D01*
X7240665Y8414501D01*
X7496634Y8414501D01*
X7499492Y8414764D01*
X7499501Y8414764D01*
X7535004Y8418026D01*
X7570062Y8421247D01*
X7576447Y8423248D01*
X7726450Y8470256D01*
X7726452Y8470257D01*
X7733699Y8472528D01*
X7880381Y8561361D01*
X7975905Y8656885D01*
X8038217Y8690911D01*
X8109032Y8685846D01*
G37*
%TD.AperFunction*%
%TA.AperFunction,NonConductor*%
G36*
X2732026Y6164856D02*
G01*
X2759875Y6133006D01*
X2819987Y6034912D01*
X2966250Y5866062D01*
X3138126Y5723368D01*
X3208595Y5682189D01*
X3211445Y5680524D01*
X3260169Y5628886D01*
X3273240Y5559103D01*
X3246509Y5493331D01*
X3206055Y5459973D01*
X3193607Y5453493D01*
X3189474Y5450390D01*
X3189471Y5450388D01*
X3070500Y5361062D01*
X3014965Y5319365D01*
X2860629Y5157862D01*
X2753201Y5000379D01*
X2698293Y4955379D01*
X2627768Y4947208D01*
X2564021Y4978462D01*
X2543324Y5002946D01*
X2462822Y5127383D01*
X2462820Y5127386D01*
X2460014Y5131723D01*
X2309670Y5296949D01*
X2305619Y5300148D01*
X2305615Y5300152D01*
X2138414Y5432200D01*
X2138410Y5432202D01*
X2134359Y5435402D01*
X2093053Y5458204D01*
X2043084Y5508636D01*
X2028312Y5578079D01*
X2053428Y5644484D01*
X2080780Y5671091D01*
X2149886Y5720384D01*
X2259860Y5798827D01*
X2418096Y5956511D01*
X2548453Y6137923D01*
X2549776Y6136972D01*
X2596645Y6180143D01*
X2666580Y6192375D01*
X2732026Y6164856D01*
G37*
%TD.AperFunction*%
%TA.AperFunction,NonConductor*%
G36*
X16954414Y5299327D02*
G01*
X17003448Y5247983D01*
X17017500Y5190158D01*
X17017500Y4935264D01*
X16997498Y4867143D01*
X16943842Y4820650D01*
X16873568Y4810546D01*
X16813410Y4836381D01*
X16694359Y4930402D01*
X16653053Y4953204D01*
X16603084Y5003636D01*
X16588312Y5073079D01*
X16613428Y5139484D01*
X16640780Y5166091D01*
X16818332Y5292737D01*
X16885405Y5316011D01*
X16954414Y5299327D01*
G37*
%TD.AperFunction*%
%TA.AperFunction,NonConductor*%
G36*
X12042747Y6856498D02*
G01*
X12089240Y6802842D01*
X12099344Y6732568D01*
X12096045Y6716836D01*
X12060989Y6590430D01*
X12037251Y6368305D01*
X12037548Y6363152D01*
X12037548Y6363149D01*
X12047395Y6192375D01*
X12050110Y6145285D01*
X12051247Y6140239D01*
X12051248Y6140233D01*
X12051769Y6137923D01*
X12099222Y5927361D01*
X12183266Y5720384D01*
X12185965Y5715980D01*
X12284470Y5555234D01*
X12299987Y5529912D01*
X12446250Y5361062D01*
X12618126Y5218368D01*
X12666402Y5190158D01*
X12691445Y5175524D01*
X12740169Y5123886D01*
X12753240Y5054103D01*
X12726509Y4988331D01*
X12686055Y4954973D01*
X12673607Y4948493D01*
X12669474Y4945390D01*
X12669471Y4945388D01*
X12499100Y4817470D01*
X12494965Y4814365D01*
X12340629Y4652862D01*
X12337715Y4648590D01*
X12337714Y4648589D01*
X12225095Y4483496D01*
X12170184Y4438493D01*
X12121007Y4428500D01*
X10044595Y4428500D01*
X9976474Y4448502D01*
X9955499Y4465405D01*
X9898404Y4522501D01*
X9864379Y4584814D01*
X9861500Y4611596D01*
X9861499Y4900751D01*
X9861499Y4903634D01*
X9854753Y4977062D01*
X9852754Y4983441D01*
X9805744Y5133450D01*
X9805743Y5133453D01*
X9803472Y5140699D01*
X9714639Y5287381D01*
X9593381Y5408639D01*
X9446699Y5497472D01*
X9439452Y5499743D01*
X9439450Y5499744D01*
X9373164Y5520517D01*
X9283062Y5548753D01*
X9209635Y5555500D01*
X9206737Y5555500D01*
X8952335Y5555499D01*
X8696366Y5555499D01*
X8693508Y5555236D01*
X8693499Y5555236D01*
X8657996Y5551974D01*
X8622938Y5548753D01*
X8616560Y5546754D01*
X8616559Y5546754D01*
X8466550Y5499744D01*
X8466548Y5499743D01*
X8459301Y5497472D01*
X8312619Y5408639D01*
X8217095Y5313115D01*
X8154783Y5279089D01*
X8083968Y5284154D01*
X8038905Y5313115D01*
X7943381Y5408639D01*
X7796699Y5497472D01*
X7789452Y5499743D01*
X7789450Y5499744D01*
X7723164Y5520517D01*
X7633062Y5548753D01*
X7559635Y5555500D01*
X7556737Y5555500D01*
X7302335Y5555499D01*
X7046366Y5555499D01*
X7043508Y5555236D01*
X7043499Y5555236D01*
X7007996Y5551974D01*
X6972938Y5548753D01*
X6966560Y5546754D01*
X6966559Y5546754D01*
X6816550Y5499744D01*
X6816548Y5499743D01*
X6809301Y5497472D01*
X6662619Y5408639D01*
X6541361Y5287381D01*
X6452528Y5140699D01*
X6445045Y5116820D01*
X6405586Y5057798D01*
X6366119Y5036782D01*
X6366294Y5036378D01*
X6361310Y5034221D01*
X6359963Y5033504D01*
X6351406Y5031018D01*
X6344587Y5026985D01*
X6344582Y5026983D01*
X6333971Y5020707D01*
X6316221Y5012010D01*
X6297383Y5004552D01*
X6290967Y4999891D01*
X6290966Y4999890D01*
X6261625Y4978572D01*
X6251701Y4972053D01*
X6220460Y4953578D01*
X6220455Y4953574D01*
X6213637Y4949542D01*
X6199313Y4935218D01*
X6184281Y4922379D01*
X6167893Y4910472D01*
X6139712Y4876407D01*
X6131722Y4867627D01*
X5496877Y4232782D01*
X5434565Y4198756D01*
X5363750Y4203821D01*
X5306914Y4246368D01*
X5282206Y4311553D01*
X5264852Y4522639D01*
X5236821Y4634235D01*
X5239625Y4705177D01*
X5269930Y4754026D01*
X6490925Y5975021D01*
X6553237Y6009047D01*
X6624052Y6003982D01*
X6645281Y5993707D01*
X6746301Y5932528D01*
X6753548Y5930257D01*
X6753550Y5930256D01*
X6819836Y5909483D01*
X6909938Y5881247D01*
X6983365Y5874500D01*
X6986263Y5874500D01*
X7240665Y5874501D01*
X7496634Y5874501D01*
X7499492Y5874764D01*
X7499501Y5874764D01*
X7535004Y5878026D01*
X7570062Y5881247D01*
X7576447Y5883248D01*
X7726450Y5930256D01*
X7726452Y5930257D01*
X7733699Y5932528D01*
X7880381Y6021361D01*
X7975905Y6116885D01*
X8038217Y6150911D01*
X8109032Y6145846D01*
X8154095Y6116885D01*
X8249619Y6021361D01*
X8396301Y5932528D01*
X8403548Y5930257D01*
X8403550Y5930256D01*
X8469836Y5909483D01*
X8559938Y5881247D01*
X8633365Y5874500D01*
X8636263Y5874500D01*
X8890665Y5874501D01*
X9146634Y5874501D01*
X9149492Y5874764D01*
X9149501Y5874764D01*
X9185004Y5878026D01*
X9220062Y5881247D01*
X9226447Y5883248D01*
X9376450Y5930256D01*
X9376452Y5930257D01*
X9383699Y5932528D01*
X9530381Y6021361D01*
X9651639Y6142619D01*
X9740472Y6289301D01*
X9791753Y6452938D01*
X9798500Y6526365D01*
X9798500Y6750500D01*
X9818502Y6818621D01*
X9872158Y6865114D01*
X9924500Y6876500D01*
X11974626Y6876500D01*
X12042747Y6856498D01*
G37*
%TD.AperFunction*%
%TA.AperFunction,NonConductor*%
G36*
X8172032Y3859846D02*
G01*
X8217095Y3830885D01*
X8312619Y3735361D01*
X8459301Y3646528D01*
X8466548Y3644257D01*
X8466550Y3644256D01*
X8479675Y3640143D01*
X8622938Y3595247D01*
X8696365Y3588500D01*
X8714473Y3588500D01*
X8988405Y3588501D01*
X9056524Y3568499D01*
X9077499Y3551597D01*
X9204825Y3424271D01*
X9226353Y3402742D01*
X9233887Y3394463D01*
X9238000Y3387982D01*
X9287651Y3341357D01*
X9290493Y3338602D01*
X9310230Y3318865D01*
X9313427Y3316385D01*
X9322447Y3308682D01*
X9354679Y3278414D01*
X9361625Y3274595D01*
X9361628Y3274593D01*
X9372434Y3268652D01*
X9388953Y3257801D01*
X9404959Y3245386D01*
X9412228Y3242241D01*
X9412232Y3242238D01*
X9445537Y3227826D01*
X9456195Y3222605D01*
X9484244Y3207185D01*
X9509565Y3181719D01*
X9550686Y3182325D01*
X9551855Y3181819D01*
X9559685Y3180579D01*
X9559691Y3180577D01*
X9595524Y3174901D01*
X9607144Y3172495D01*
X9642289Y3163472D01*
X9649970Y3161500D01*
X9670224Y3161500D01*
X9689934Y3159949D01*
X9709943Y3156780D01*
X9717835Y3157526D01*
X9753961Y3160941D01*
X9765819Y3161500D01*
X12124274Y3161500D01*
X12192395Y3141498D01*
X12231707Y3101335D01*
X12299987Y2989912D01*
X12446250Y2821062D01*
X12450225Y2817762D01*
X12450228Y2817759D01*
X12518060Y2761444D01*
X12557695Y2702541D01*
X12559193Y2631560D01*
X12522078Y2571038D01*
X12458134Y2540189D01*
X12437575Y2538500D01*
X9911912Y2538500D01*
X9843791Y2558502D01*
X9806039Y2602253D01*
X9803472Y2600699D01*
X9718576Y2740880D01*
X9714639Y2747381D01*
X9593381Y2868639D01*
X9524445Y2910388D01*
X9453100Y2953596D01*
X9432432Y2976201D01*
X9396410Y2973727D01*
X9385864Y2976537D01*
X9329143Y2994312D01*
X9283062Y3008753D01*
X9209635Y3015500D01*
X9206737Y3015500D01*
X8952335Y3015499D01*
X8696366Y3015499D01*
X8693508Y3015236D01*
X8693499Y3015236D01*
X8657996Y3011974D01*
X8622938Y3008753D01*
X8616560Y3006754D01*
X8616559Y3006754D01*
X8466550Y2959744D01*
X8466548Y2959743D01*
X8459301Y2957472D01*
X8312619Y2868639D01*
X8217095Y2773115D01*
X8154783Y2739089D01*
X8083968Y2744154D01*
X8038905Y2773115D01*
X7943381Y2868639D01*
X7796699Y2957472D01*
X7789452Y2959743D01*
X7789450Y2959744D01*
X7723164Y2980517D01*
X7633062Y3008753D01*
X7559635Y3015500D01*
X7556737Y3015500D01*
X7302335Y3015499D01*
X7046366Y3015499D01*
X7043508Y3015236D01*
X7043499Y3015236D01*
X7007996Y3011974D01*
X6972938Y3008753D01*
X6966560Y3006754D01*
X6966559Y3006754D01*
X6816550Y2959744D01*
X6816548Y2959743D01*
X6809301Y2957472D01*
X6662619Y2868639D01*
X6541361Y2747381D01*
X6452528Y2600699D01*
X6449986Y2602238D01*
X6412646Y2558784D01*
X6344088Y2538500D01*
X6047767Y2538500D01*
X6036584Y2539027D01*
X6029091Y2540702D01*
X6021165Y2540453D01*
X6021164Y2540453D01*
X5961001Y2538562D01*
X5957043Y2538500D01*
X5929144Y2538500D01*
X5925154Y2537996D01*
X5913308Y2537063D01*
X5910394Y2536972D01*
X5900649Y2536666D01*
X5831934Y2554522D01*
X5783782Y2606694D01*
X5771480Y2676616D01*
X5798933Y2742090D01*
X5807603Y2751699D01*
X6674787Y3618883D01*
X6737099Y3652909D01*
X6807023Y3647908D01*
X6809301Y3646528D01*
X6972938Y3595247D01*
X7046365Y3588500D01*
X7049263Y3588500D01*
X7303665Y3588501D01*
X7559634Y3588501D01*
X7562492Y3588764D01*
X7562501Y3588764D01*
X7598004Y3592026D01*
X7633062Y3595247D01*
X7641601Y3597923D01*
X7789450Y3644256D01*
X7789452Y3644257D01*
X7796699Y3646528D01*
X7943381Y3735361D01*
X8038905Y3830885D01*
X8101217Y3864911D01*
X8172032Y3859846D01*
G37*
%TD.AperFunction*%
%TA.AperFunction,NonConductor*%
G36*
X2732026Y3624856D02*
G01*
X2759875Y3593006D01*
X2819987Y3494912D01*
X2966250Y3326062D01*
X3138126Y3183368D01*
X3183626Y3156780D01*
X3211445Y3140524D01*
X3260169Y3088886D01*
X3273240Y3019103D01*
X3246509Y2953331D01*
X3206055Y2919973D01*
X3193607Y2913493D01*
X3189474Y2910390D01*
X3189471Y2910388D01*
X3070500Y2821062D01*
X3014965Y2779365D01*
X2860629Y2617862D01*
X2753201Y2460379D01*
X2698293Y2415379D01*
X2627768Y2407208D01*
X2564021Y2438462D01*
X2543324Y2462946D01*
X2462822Y2587383D01*
X2462820Y2587386D01*
X2460014Y2591723D01*
X2309670Y2756949D01*
X2305619Y2760148D01*
X2305615Y2760152D01*
X2138414Y2892200D01*
X2138410Y2892202D01*
X2134359Y2895402D01*
X2093053Y2918204D01*
X2043084Y2968636D01*
X2028312Y3038079D01*
X2053428Y3104484D01*
X2080780Y3131091D01*
X2150157Y3180577D01*
X2259860Y3258827D01*
X2269720Y3268652D01*
X2414435Y3412863D01*
X2418096Y3416511D01*
X2548453Y3597923D01*
X2549776Y3596972D01*
X2596645Y3640143D01*
X2666580Y3652375D01*
X2732026Y3624856D01*
G37*
%TD.AperFunction*%
%TA.AperFunction,NonConductor*%
G36*
X16954414Y2759327D02*
G01*
X17003448Y2707983D01*
X17017500Y2650158D01*
X17017500Y634500D01*
X16997498Y566379D01*
X16943842Y519886D01*
X16891500Y508500D01*
X5772595Y508500D01*
X5704474Y528502D01*
X5657981Y582158D01*
X5647877Y652432D01*
X5677371Y717012D01*
X5683500Y723596D01*
X6194501Y1234596D01*
X6256813Y1268621D01*
X6283596Y1271500D01*
X6534290Y1271500D01*
X6602411Y1251498D01*
X6623384Y1234596D01*
X6662619Y1195361D01*
X6809301Y1106528D01*
X6816548Y1104257D01*
X6816550Y1104256D01*
X6882836Y1083483D01*
X6972938Y1055247D01*
X7046365Y1048500D01*
X7049263Y1048500D01*
X7303665Y1048501D01*
X7559634Y1048501D01*
X7562492Y1048764D01*
X7562501Y1048764D01*
X7598004Y1052026D01*
X7633062Y1055247D01*
X7639447Y1057248D01*
X7789450Y1104256D01*
X7789452Y1104257D01*
X7796699Y1106528D01*
X7943381Y1195361D01*
X8038905Y1290885D01*
X8101217Y1324911D01*
X8172032Y1319846D01*
X8217095Y1290885D01*
X8312619Y1195361D01*
X8459301Y1106528D01*
X8466548Y1104257D01*
X8466550Y1104256D01*
X8532836Y1083483D01*
X8622938Y1055247D01*
X8696365Y1048500D01*
X8699263Y1048500D01*
X8953665Y1048501D01*
X9209634Y1048501D01*
X9212492Y1048764D01*
X9212501Y1048764D01*
X9248004Y1052026D01*
X9283062Y1055247D01*
X9289447Y1057248D01*
X9439450Y1104256D01*
X9439452Y1104257D01*
X9446699Y1106528D01*
X9593381Y1195361D01*
X9632615Y1234595D01*
X9694927Y1268621D01*
X9721710Y1271500D01*
X13092934Y1271500D01*
X13104117Y1270973D01*
X13111610Y1269298D01*
X13119536Y1269547D01*
X13119537Y1269547D01*
X13179687Y1271438D01*
X13183646Y1271500D01*
X13211557Y1271500D01*
X13215492Y1271997D01*
X13215557Y1272005D01*
X13227394Y1272938D01*
X13259652Y1273952D01*
X13263671Y1274078D01*
X13271590Y1274327D01*
X13291044Y1279979D01*
X13310401Y1283987D01*
X13322631Y1285532D01*
X13322632Y1285532D01*
X13330498Y1286526D01*
X13337869Y1289445D01*
X13337871Y1289445D01*
X13371613Y1302804D01*
X13382843Y1306649D01*
X13417684Y1316771D01*
X13417685Y1316771D01*
X13425294Y1318982D01*
X13432113Y1323015D01*
X13432118Y1323017D01*
X13442729Y1329293D01*
X13460477Y1337988D01*
X13479318Y1345448D01*
X13515088Y1371436D01*
X13525008Y1377952D01*
X13556236Y1396420D01*
X13556239Y1396422D01*
X13563063Y1400458D01*
X13577384Y1414779D01*
X13592418Y1427620D01*
X13602395Y1434869D01*
X13608808Y1439528D01*
X13636999Y1473605D01*
X13644989Y1482384D01*
X14903626Y2741021D01*
X14965938Y2775047D01*
X15036753Y2769982D01*
X15073205Y2748870D01*
X15158126Y2678368D01*
X15351000Y2565662D01*
X15355825Y2563820D01*
X15355826Y2563819D01*
X15423450Y2537996D01*
X15559692Y2485970D01*
X15564760Y2484939D01*
X15564763Y2484938D01*
X15664964Y2464552D01*
X15778597Y2441433D01*
X15783772Y2441243D01*
X15783774Y2441243D01*
X15996673Y2433436D01*
X15996677Y2433436D01*
X16001837Y2433247D01*
X16006957Y2433903D01*
X16006959Y2433903D01*
X16218288Y2460975D01*
X16218289Y2460975D01*
X16223416Y2461632D01*
X16233149Y2464552D01*
X16432429Y2524339D01*
X16432434Y2524341D01*
X16437384Y2525826D01*
X16637994Y2624104D01*
X16818332Y2752737D01*
X16885405Y2776011D01*
X16954414Y2759327D01*
G37*
%TD.AperFunction*%
M02*
