M48
; DRILL file {KiCad (6.0.6)} date Fri Aug 19 10:36:44 2022
; FORMAT={-:-/ absolute / metric / decimal}
; #@! TF.CreationDate,2022-08-19T10:36:44-07:00
; #@! TF.GenerationSoftware,Kicad,Pcbnew,(6.0.6)
; #@! TF.FileFunction,NonPlated,1,2,NPTH
FMAT,2
METRIC
; #@! TA.AperFunction,NonPlated,NPTH,ComponentDrill
T1C0.500
%
G90
G05
T1
X0.5Y-8.0
X0.5Y-84.58
X1.5Y-8.0
X1.5Y-84.58
X2.5Y-8.0
X2.5Y-84.58
X3.5Y-8.0
X3.5Y-84.58
X4.5Y-8.0
X4.5Y-84.58
X8.0Y-0.5
X8.0Y-1.5
X8.0Y-2.5
X8.0Y-3.5
X8.0Y-4.5
X8.0Y-88.08
X8.0Y-89.08
X8.0Y-90.08
X8.0Y-91.08
X8.0Y-92.08
X8.2Y-11.86
X8.2Y-12.86
X8.2Y-13.86
X8.2Y-14.86
X8.2Y-15.86
X8.2Y-16.86
X8.2Y-17.86
X8.2Y-27.575
X8.2Y-28.575
X8.2Y-29.575
X8.2Y-30.575
X8.2Y-31.575
X8.2Y-32.575
X8.2Y-33.575
X8.2Y-43.29
X8.2Y-44.29
X8.2Y-45.29
X8.2Y-46.29
X8.2Y-47.29
X8.2Y-48.29
X8.2Y-49.29
X8.2Y-59.01
X8.2Y-60.01
X8.2Y-61.01
X8.2Y-62.01
X8.2Y-63.01
X8.2Y-64.01
X8.2Y-65.01
X8.2Y-74.725
X8.2Y-75.725
X8.2Y-76.725
X8.2Y-77.725
X8.2Y-78.725
X8.2Y-79.725
X8.2Y-80.725
X13.76Y-8.2
X13.76Y-21.52
X13.76Y-23.92
X13.76Y-37.23
X13.76Y-39.63
X13.76Y-52.95
X13.76Y-55.35
X13.76Y-68.67
X13.76Y-71.07
X13.76Y-84.38
X14.76Y-8.2
X14.76Y-21.52
X14.76Y-23.92
X14.76Y-37.23
X14.76Y-39.63
X14.76Y-52.95
X14.76Y-55.35
X14.76Y-68.67
X14.76Y-71.07
X14.76Y-84.38
X15.76Y-8.2
X15.76Y-21.52
X15.76Y-23.92
X15.76Y-37.23
X15.76Y-39.63
X15.76Y-52.95
X15.76Y-55.35
X15.76Y-68.67
X15.76Y-71.07
X15.76Y-84.38
X16.76Y-8.2
X16.76Y-21.52
X16.76Y-23.92
X16.76Y-37.23
X16.76Y-39.63
X16.76Y-52.95
X16.76Y-55.35
X16.76Y-68.67
X16.76Y-71.07
X16.76Y-84.38
X17.76Y-8.2
X17.76Y-21.52
X17.76Y-23.92
X17.76Y-37.23
X17.76Y-39.63
X17.76Y-52.95
X17.76Y-55.35
X17.76Y-68.67
X17.76Y-71.07
X17.76Y-84.38
X18.76Y-8.2
X18.76Y-21.52
X18.76Y-23.92
X18.76Y-37.23
X18.76Y-39.63
X18.76Y-52.95
X18.76Y-55.35
X18.76Y-68.67
X18.76Y-71.07
X18.76Y-84.38
X19.76Y-8.2
X19.76Y-21.52
X19.76Y-23.92
X19.76Y-37.23
X19.76Y-39.63
X19.76Y-52.95
X19.76Y-55.35
X19.76Y-68.67
X19.76Y-71.07
X19.76Y-84.38
X25.32Y-11.86
X25.32Y-12.86
X25.32Y-13.86
X25.32Y-14.86
X25.32Y-15.86
X25.32Y-16.86
X25.32Y-17.86
X25.32Y-27.575
X25.32Y-28.575
X25.32Y-29.575
X25.32Y-30.575
X25.32Y-31.575
X25.32Y-32.575
X25.32Y-33.575
X25.32Y-43.29
X25.32Y-44.29
X25.32Y-45.29
X25.32Y-46.29
X25.32Y-47.29
X25.32Y-48.29
X25.32Y-49.29
X25.32Y-59.01
X25.32Y-60.01
X25.32Y-61.01
X25.32Y-62.01
X25.32Y-63.01
X25.32Y-64.01
X25.32Y-65.01
X25.32Y-74.725
X25.32Y-75.725
X25.32Y-76.725
X25.32Y-77.725
X25.32Y-78.725
X25.32Y-79.725
X25.32Y-80.725
X27.72Y-11.86
X27.72Y-12.86
X27.72Y-13.86
X27.72Y-14.86
X27.72Y-15.86
X27.72Y-16.86
X27.72Y-17.86
X27.72Y-27.575
X27.72Y-28.575
X27.72Y-29.575
X27.72Y-30.575
X27.72Y-31.575
X27.72Y-32.575
X27.72Y-33.575
X27.72Y-43.29
X27.72Y-44.29
X27.72Y-45.29
X27.72Y-46.29
X27.72Y-47.29
X27.72Y-48.29
X27.72Y-49.29
X27.72Y-59.01
X27.72Y-60.01
X27.72Y-61.01
X27.72Y-62.01
X27.72Y-63.01
X27.72Y-64.01
X27.72Y-65.01
X27.72Y-74.725
X27.72Y-75.725
X27.72Y-76.725
X27.72Y-77.725
X27.72Y-78.725
X27.72Y-79.725
X27.72Y-80.725
X33.285Y-8.2
X33.285Y-21.52
X33.285Y-23.92
X33.285Y-37.23
X33.285Y-39.63
X33.285Y-52.95
X33.285Y-55.35
X33.285Y-68.67
X33.285Y-71.07
X33.285Y-84.38
X34.285Y-8.2
X34.285Y-21.52
X34.285Y-23.92
X34.285Y-37.23
X34.285Y-39.63
X34.285Y-52.95
X34.285Y-55.35
X34.285Y-68.67
X34.285Y-71.07
X34.285Y-84.38
X35.285Y-8.2
X35.285Y-21.52
X35.285Y-23.92
X35.285Y-37.23
X35.285Y-39.63
X35.285Y-52.95
X35.285Y-55.35
X35.285Y-68.67
X35.285Y-71.07
X35.285Y-84.38
X36.285Y-8.2
X36.285Y-21.52
X36.285Y-23.92
X36.285Y-37.23
X36.285Y-39.63
X36.285Y-52.95
X36.285Y-55.35
X36.285Y-68.67
X36.285Y-71.07
X36.285Y-84.38
X37.285Y-8.2
X37.285Y-21.52
X37.285Y-23.92
X37.285Y-37.23
X37.285Y-39.63
X37.285Y-52.95
X37.285Y-55.35
X37.285Y-68.67
X37.285Y-71.07
X37.285Y-84.38
X38.285Y-8.2
X38.285Y-21.52
X38.285Y-23.92
X38.285Y-37.23
X38.285Y-39.63
X38.285Y-52.95
X38.285Y-55.35
X38.285Y-68.67
X38.285Y-71.07
X38.285Y-84.38
X39.285Y-8.2
X39.285Y-21.52
X39.285Y-23.92
X39.285Y-37.23
X39.285Y-39.63
X39.285Y-52.95
X39.285Y-55.35
X39.285Y-68.67
X39.285Y-71.07
X39.285Y-84.38
X44.85Y-11.86
X44.85Y-12.86
X44.85Y-13.86
X44.85Y-14.86
X44.85Y-15.86
X44.85Y-16.86
X44.85Y-17.86
X44.85Y-27.575
X44.85Y-28.575
X44.85Y-29.575
X44.85Y-30.575
X44.85Y-31.575
X44.85Y-32.575
X44.85Y-33.575
X44.85Y-43.29
X44.85Y-44.29
X44.85Y-45.29
X44.85Y-46.29
X44.85Y-47.29
X44.85Y-48.29
X44.85Y-49.29
X44.85Y-59.01
X44.85Y-60.01
X44.85Y-61.01
X44.85Y-62.01
X44.85Y-63.01
X44.85Y-64.01
X44.85Y-65.01
X44.85Y-74.725
X44.85Y-75.725
X44.85Y-76.725
X44.85Y-77.725
X44.85Y-78.725
X44.85Y-79.725
X44.85Y-80.725
X47.25Y-11.86
X47.25Y-12.86
X47.25Y-13.86
X47.25Y-14.86
X47.25Y-15.86
X47.25Y-16.86
X47.25Y-17.86
X47.25Y-27.575
X47.25Y-28.575
X47.25Y-29.575
X47.25Y-30.575
X47.25Y-31.575
X47.25Y-32.575
X47.25Y-33.575
X47.25Y-43.29
X47.25Y-44.29
X47.25Y-45.29
X47.25Y-46.29
X47.25Y-47.29
X47.25Y-48.29
X47.25Y-49.29
X47.25Y-59.01
X47.25Y-60.01
X47.25Y-61.01
X47.25Y-62.01
X47.25Y-63.01
X47.25Y-64.01
X47.25Y-65.01
X47.25Y-74.725
X47.25Y-75.725
X47.25Y-76.725
X47.25Y-77.725
X47.25Y-78.725
X47.25Y-79.725
X47.25Y-80.725
X52.815Y-8.2
X52.815Y-21.52
X52.815Y-23.92
X52.815Y-37.23
X52.815Y-39.63
X52.815Y-52.95
X52.815Y-55.35
X52.815Y-68.67
X52.815Y-71.07
X52.815Y-84.38
X53.815Y-8.2
X53.815Y-21.52
X53.815Y-23.92
X53.815Y-37.23
X53.815Y-39.63
X53.815Y-52.95
X53.815Y-55.35
X53.815Y-68.67
X53.815Y-71.07
X53.815Y-84.38
X54.815Y-8.2
X54.815Y-21.52
X54.815Y-23.92
X54.815Y-37.23
X54.815Y-39.63
X54.815Y-52.95
X54.815Y-55.35
X54.815Y-68.67
X54.815Y-71.07
X54.815Y-84.38
X55.815Y-8.2
X55.815Y-21.52
X55.815Y-23.92
X55.815Y-37.23
X55.815Y-39.63
X55.815Y-52.95
X55.815Y-55.35
X55.815Y-68.67
X55.815Y-71.07
X55.815Y-84.38
X56.815Y-8.2
X56.815Y-21.52
X56.815Y-23.92
X56.815Y-37.23
X56.815Y-39.63
X56.815Y-52.95
X56.815Y-55.35
X56.815Y-68.67
X56.815Y-71.07
X56.815Y-84.38
X57.815Y-8.2
X57.815Y-21.52
X57.815Y-23.92
X57.815Y-37.23
X57.815Y-39.63
X57.815Y-52.95
X57.815Y-55.35
X57.815Y-68.67
X57.815Y-71.07
X57.815Y-84.38
X58.815Y-8.2
X58.815Y-21.52
X58.815Y-23.92
X58.815Y-37.23
X58.815Y-39.63
X58.815Y-52.95
X58.815Y-55.35
X58.815Y-68.67
X58.815Y-71.07
X58.815Y-84.38
X64.38Y-11.86
X64.38Y-12.86
X64.38Y-13.86
X64.38Y-14.86
X64.38Y-15.86
X64.38Y-16.86
X64.38Y-17.86
X64.38Y-27.575
X64.38Y-28.575
X64.38Y-29.575
X64.38Y-30.575
X64.38Y-31.575
X64.38Y-32.575
X64.38Y-33.575
X64.38Y-43.29
X64.38Y-44.29
X64.38Y-45.29
X64.38Y-46.29
X64.38Y-47.29
X64.38Y-48.29
X64.38Y-49.29
X64.38Y-59.01
X64.38Y-60.01
X64.38Y-61.01
X64.38Y-62.01
X64.38Y-63.01
X64.38Y-64.01
X64.38Y-65.01
X64.38Y-74.725
X64.38Y-75.725
X64.38Y-76.725
X64.38Y-77.725
X64.38Y-78.725
X64.38Y-79.725
X64.38Y-80.725
X66.78Y-11.86
X66.78Y-12.86
X66.78Y-13.86
X66.78Y-14.86
X66.78Y-15.86
X66.78Y-16.86
X66.78Y-17.86
X66.78Y-27.575
X66.78Y-28.575
X66.78Y-29.575
X66.78Y-30.575
X66.78Y-31.575
X66.78Y-32.575
X66.78Y-33.575
X66.78Y-43.29
X66.78Y-44.29
X66.78Y-45.29
X66.78Y-46.29
X66.78Y-47.29
X66.78Y-48.29
X66.78Y-49.29
X66.78Y-59.01
X66.78Y-60.01
X66.78Y-61.01
X66.78Y-62.01
X66.78Y-63.01
X66.78Y-64.01
X66.78Y-65.01
X66.78Y-74.725
X66.78Y-75.725
X66.78Y-76.725
X66.78Y-77.725
X66.78Y-78.725
X66.78Y-79.725
X66.78Y-80.725
X72.34Y-8.2
X72.34Y-21.52
X72.34Y-23.92
X72.34Y-37.23
X72.34Y-39.63
X72.34Y-52.95
X72.34Y-55.35
X72.34Y-68.67
X72.34Y-71.07
X72.34Y-84.38
X73.34Y-8.2
X73.34Y-21.52
X73.34Y-23.92
X73.34Y-37.23
X73.34Y-39.63
X73.34Y-52.95
X73.34Y-55.35
X73.34Y-68.67
X73.34Y-71.07
X73.34Y-84.38
X74.34Y-8.2
X74.34Y-21.52
X74.34Y-23.92
X74.34Y-37.23
X74.34Y-39.63
X74.34Y-52.95
X74.34Y-55.35
X74.34Y-68.67
X74.34Y-71.07
X74.34Y-84.38
X75.34Y-8.2
X75.34Y-21.52
X75.34Y-23.92
X75.34Y-37.23
X75.34Y-39.63
X75.34Y-52.95
X75.34Y-55.35
X75.34Y-68.67
X75.34Y-71.07
X75.34Y-84.38
X76.34Y-8.2
X76.34Y-21.52
X76.34Y-23.92
X76.34Y-37.23
X76.34Y-39.63
X76.34Y-52.95
X76.34Y-55.35
X76.34Y-68.67
X76.34Y-71.07
X76.34Y-84.38
X77.34Y-8.2
X77.34Y-21.52
X77.34Y-23.92
X77.34Y-37.23
X77.34Y-39.63
X77.34Y-52.95
X77.34Y-55.35
X77.34Y-68.67
X77.34Y-71.07
X77.34Y-84.38
X78.34Y-8.2
X78.34Y-21.52
X78.34Y-23.92
X78.34Y-37.23
X78.34Y-39.63
X78.34Y-52.95
X78.34Y-55.35
X78.34Y-68.67
X78.34Y-71.07
X78.34Y-84.38
X83.9Y-11.86
X83.9Y-12.86
X83.9Y-13.86
X83.9Y-14.86
X83.9Y-15.86
X83.9Y-16.86
X83.9Y-17.86
X83.9Y-27.575
X83.9Y-28.575
X83.9Y-29.575
X83.9Y-30.575
X83.9Y-31.575
X83.9Y-32.575
X83.9Y-33.575
X83.9Y-43.29
X83.9Y-44.29
X83.9Y-45.29
X83.9Y-46.29
X83.9Y-47.29
X83.9Y-48.29
X83.9Y-49.29
X83.9Y-59.01
X83.9Y-60.01
X83.9Y-61.01
X83.9Y-62.01
X83.9Y-63.01
X83.9Y-64.01
X83.9Y-65.01
X83.9Y-74.725
X83.9Y-75.725
X83.9Y-76.725
X83.9Y-77.725
X83.9Y-78.725
X83.9Y-79.725
X83.9Y-80.725
X84.1Y-0.5
X84.1Y-1.5
X84.1Y-2.5
X84.1Y-3.5
X84.1Y-4.5
X84.1Y-88.08
X84.1Y-89.08
X84.1Y-90.08
X84.1Y-91.08
X84.1Y-92.08
X87.6Y-8.0
X87.6Y-84.58
X88.6Y-8.0
X88.6Y-84.58
X89.6Y-8.0
X89.6Y-84.58
X90.6Y-8.0
X90.6Y-84.58
X91.6Y-8.0
X91.6Y-84.58
T0
M30
